STARTFONT 2.3
FONT -FontForge-Indie Flower-Book-R-Normal--20-200-72-72-P-91-ISO10646-1
SIZE 20 72 72  4
FONTBOUNDINGBOX 25 30 -3 -10
COMMENT "Generated by fontforge, http://fontforge.sourceforge.net"
COMMENT "Copyright (c) 2010, Kimberly Geswein (kimberlygeswein.com)"
STARTPROPERTIES 40
FOUNDRY "FontForge"
FAMILY_NAME "Indie Flower"
WEIGHT_NAME "Book"
SLANT "R"
SETWIDTH_NAME "Normal"
ADD_STYLE_NAME ""
PIXEL_SIZE 20
POINT_SIZE 200
RESOLUTION_X 72
RESOLUTION_Y 72
SPACING "P"
AVERAGE_WIDTH 91
CHARSET_REGISTRY "ISO10646"
CHARSET_ENCODING "1"
FONTNAME_REGISTRY ""
CHARSET_COLLECTIONS "ISO8859-2 ISO8859-9 ISO8859-4 ISO10646-1"
BITS_PER_PIXEL 4
FONT_NAME "IndieFlower"
FACE_NAME "Indie Flower"
COPYRIGHT "Copyright (c) 2010, Kimberly Geswein (kimberlygeswein.com)"
FONT_VERSION "1.001 2010"
FONT_ASCENT 16
FONT_DESCENT 4
UNDERLINE_POSITION -2
UNDERLINE_THICKNESS 1
X_HEIGHT 7
CAP_HEIGHT 10
RAW_ASCENT 799
RAW_DESCENT 200
NORM_SPACE 8
RELATIVE_WEIGHT 40
RELATIVE_SETWIDTH 50
SUPERSCRIPT_X 0
SUPERSCRIPT_Y 9
SUPERSCRIPT_SIZE 13
SUBSCRIPT_X 0
SUBSCRIPT_Y 2
SUBSCRIPT_SIZE 13
AVG_LOWERCASE_WIDTH 90
AVG_UPPERCASE_WIDTH 106
ENDPROPERTIES
CHARS 356
STARTCHAR space
ENCODING 32
SWIDTH 375 0
DWIDTH 8 0
BBX 1 1 0 0
BITMAP
00
ENDCHAR
STARTCHAR exclam
ENCODING 33
SWIDTH 149 0
DWIDTH 3 0
BBX 3 17 0 0
BITMAP
1500
3B00
3B00
3B00
3C00
3C00
4C00
4C00
3C00
3D00
3D00
1B00
0000
0000
0000
7F70
8E50
ENDCHAR
STARTCHAR quotedbl
ENCODING 34
SWIDTH 234 0
DWIDTH 5 0
BBX 5 7 0 9
BITMAP
402800
B32D00
A72F00
7A2F10
4E1F20
0B2D20
000200
ENDCHAR
STARTCHAR numbersign
ENCODING 35
SWIDTH 768 0
DWIDTH 15 0
BBX 15 10 0 0
BITMAP
0000008035000000
000000D04A000000
000000F11E555200
000368FFFFDAAC00
4BEEA8E83D500000
884000C85DDCDD80
00369CFFCEC64550
02A8648B0A800000
0000005A08900000
0000000006600000
ENDCHAR
STARTCHAR dollar
ENCODING 36
SWIDTH 581 0
DWIDTH 12 0
BBX 12 19 0 0
BITMAP
000000300000
000001D09000
000004B2C000
000006E9C000
0001AFECF600
000B9C74B100
000E28657000
0006BD675000
00005F7C4000
00000ECFA000
00000E7E9A00
00000E690890
21001B8701F2
AC1048A500D4
1AC287C500F2
004DFBF507C0
0000CFFA9D30
00009AFA6100
000064C10000
ENDCHAR
STARTCHAR percent
ENCODING 37
SWIDTH 636 0
DWIDTH 13 0
BBX 13 13 0 0
BITMAP
00000000001000
00000000048000
07CA20002C1000
6D58D101C20000
B600C309500000
A703D159000000
2CCE51D1000000
00210A703CE400
00005E11D55E10
0001D708800E30
0007D10C203E10
000E500C67E500
002A0003BC5000
ENDCHAR
STARTCHAR ampersand
ENCODING 38
SWIDTH 457 0
DWIDTH 9 0
BBX 9 14 0 0
BITMAP
000A900000
000FF20000
001FF40000
002FF20000
002FD00000
003F601210
006E00FE90
00CF21F100
05C685B000
0D30DF7000
5C008F1000
A701DD5000
B73C61B100
4EE7002500
ENDCHAR
STARTCHAR quotesingle
ENCODING 39
SWIDTH 102 0
DWIDTH 2 0
BBX 2 6 0 9
BITMAP
41
96
99
7A
4B
02
ENDCHAR
STARTCHAR parenleft
ENCODING 40
SWIDTH 421 0
DWIDTH 8 0
BBX 9 13 0 -1
BITMAP
0000039600
00008D8B10
0009910000
007A000000
03D1000000
0B60000000
3E00000000
8A00000000
8800000000
6900000000
2E30000000
07F9520000
005AC50000
ENDCHAR
STARTCHAR parenright
ENCODING 41
SWIDTH 290 0
DWIDTH 6 0
BBX 6 14 0 -2
BITMAP
0C9100
02DC00
002E70
0006E0
0000E4
0000B6
0000B5
0001E1
0008A0
004F30
03E900
3ED100
BC1000
100000
ENDCHAR
STARTCHAR asterisk
ENCODING 42
SWIDTH 412 0
DWIDTH 8 0
BBX 8 9 0 4
BITMAP
00000001
050202C8
0BCC9E70
00BFFEB0
5ECFFF40
15F5EF40
0980AFD0
03007970
00002100
ENDCHAR
STARTCHAR plus
ENCODING 43
SWIDTH 459 0
DWIDTH 9 0
BBX 9 9 0 0
BITMAP
0004000000
000B500000
0008900000
0006D31000
48BEFFFE90
7856F74420
0000F40000
0000D40000
0000B30000
ENDCHAR
STARTCHAR comma
ENCODING 44
SWIDTH 130 0
DWIDTH 3 0
BBX 2 7 0 -4
BITMAP
68
6D
4E
6C
99
C6
81
ENDCHAR
STARTCHAR hyphen
ENCODING 45
SWIDTH 375 0
DWIDTH 8 0
BBX 7 3 0 4
BITMAP
02456510
6FEDCD90
21000000
ENDCHAR
STARTCHAR period
ENCODING 46
SWIDTH 204 0
DWIDTH 4 0
BBX 4 4 0 0
BITMAP
0590
0DF5
1FF7
09C1
ENDCHAR
STARTCHAR slash
ENCODING 47
SWIDTH 309 0
DWIDTH 6 0
BBX 6 15 0 0
BITMAP
00001A
00004B
000078
0000C3
0003E0
000890
000D50
004E00
009A00
00E400
05E000
0B8000
3F2000
9B0000
A30000
ENDCHAR
STARTCHAR zero
ENCODING 48
SWIDTH 430 0
DWIDTH 9 0
BBX 9 9 0 0
BITMAP
003CE91000
04D66CC000
1D2001C700
7800005D00
9500002F10
7600003E00
2D10009A00
07C427E300
005CFD4000
ENDCHAR
STARTCHAR one
ENCODING 49
SWIDTH 318 0
DWIDTH 6 0
BBX 6 12 0 0
BITMAP
000009
00003D
00007C
0002EA
002DF8
01DBF6
1C92F4
9A03F2
0004F0
0006D0
0006A0
000660
ENDCHAR
STARTCHAR two
ENCODING 50
SWIDTH 497 0
DWIDTH 10 0
BBX 10 11 0 0
BITMAP
00003BC300
0000B65E10
0000A00C60
0000000890
00000007A0
0000000A80
0000000E40
0000006B00
9FC724D100
8FFFFFE630
0699779CE4
ENDCHAR
STARTCHAR three
ENCODING 51
SWIDTH 430 0
DWIDTH 9 0
BBX 9 11 0 0
BITMAP
0688840000
2E877D5000
010004B000
00005D6000
05BEF40000
038CFC3000
000018E300
2200006C00
7D20001F10
08E7228E00
004BEFB300
ENDCHAR
STARTCHAR four
ENCODING 52
SWIDTH 412 0
DWIDTH 8 0
BBX 8 12 0 0
BITMAP
0A600000
1F300000
5D000000
8700002B
9500009C
860003F9
5C002DF6
0DDBEDF5
02AC71C6
000000B8
000000BA
00000088
ENDCHAR
STARTCHAR five
ENCODING 53
SWIDTH 571 0
DWIDTH 11 0
BBX 11 14 0 0
BITMAP
000001222100
0001CFFFFF90
0001E3000110
0005B0000000
000D40000000
006F94000000
0049CED60000
0000004CA000
00000001C500
000000006A00
820000006B00
94000001C900
3EA7557DD100
028CEFD81000
ENDCHAR
STARTCHAR six
ENCODING 54
SWIDTH 440 0
DWIDTH 9 0
BBX 9 12 0 0
BITMAP
00002AED10
0005E83820
005D300000
02D3000000
0A70000000
2F9BBA4000
6FA536E600
9800004E10
8600000E40
5C00003F20
0DC658E900
02BFEB6000
ENDCHAR
STARTCHAR seven
ENCODING 55
SWIDTH 412 0
DWIDTH 8 0
BBX 8 11 0 0
BITMAP
4A887700
16767F00
00001F00
00002E00
00004D00
04BBDEB7
0245DA68
0000D500
0000E200
0003E000
0005A000
ENDCHAR
STARTCHAR eight
ENCODING 56
SWIDTH 375 0
DWIDTH 8 0
BBX 7 12 0 0
BITMAP
00462000
09ECF600
6D107C00
9600A600
4D46B000
04EF4000
03DAA000
0D505B10
2F100880
0E4002D0
05D304C0
003CED40
ENDCHAR
STARTCHAR nine
ENCODING 57
SWIDTH 300 0
DWIDTH 6 0
BBX 6 12 0 0
BITMAP
07ED80
5C11B7
A6009C
C600EA
8C12F8
09EEF6
0003E5
0000C4
0000C3
0000D3
0000D3
0000B3
ENDCHAR
STARTCHAR colon
ENCODING 58
SWIDTH 84 0
DWIDTH 2 0
BBX 2 6 0 1
BITMAP
63
55
00
00
32
42
ENDCHAR
STARTCHAR semicolon
ENCODING 59
SWIDTH 128 0
DWIDTH 3 0
BBX 4 12 -1 -4
BITMAP
0760
0680
0000
0000
0000
0070
00F1
01F0
06C0
0D90
3F30
3600
ENDCHAR
STARTCHAR less
ENCODING 60
SWIDTH 487 0
DWIDTH 10 0
BBX 10 9 0 0
BITMAP
0000000010
0000002AC1
000006E800
0001AC3000
004D700000
08D3000000
8F83000000
6BEFFDA600
0001357D60
ENDCHAR
STARTCHAR equal
ENCODING 61
SWIDTH 524 0
DWIDTH 10 0
BBX 10 6 0 2
BITMAP
28ABBBBBA5
378887547A
0000000000
0000000000
5AABBBCCA2
2666666650
ENDCHAR
STARTCHAR greater
ENCODING 62
SWIDTH 403 0
DWIDTH 8 0
BBX 8 10 0 0
BITMAP
12000000
4F600000
04DD8300
0005AEFA
000000CC
000008E3
0001BC20
005E9100
09E50000
5B200000
ENDCHAR
STARTCHAR question
ENCODING 63
SWIDTH 272 0
DWIDTH 5 0
BBX 5 18 0 0
BITMAP
023000
9EEC10
5008A0
0002E0
0002F0
0006D0
000D80
006F20
00E900
05E100
07D630
019CA0
000000
000000
000000
000000
000150
0005B0
ENDCHAR
STARTCHAR at
ENCODING 64
SWIDTH 815 0
DWIDTH 16 0
BBX 16 19 0 -1
BITMAP
000006BDB7200000
0004DA535AE91000
005D40000019D400
02C2000000004E50
0B300000000004F3
2A000004884000A8
740001BA67CC204B
92000B60000A803B
92004B0000C5104A
7500960001F70088
4A00A40001F701E4
1E10860008FD4AC0
08902D65BD28DA10
01E403BC81000000
005E300000000000
0006E40000000000
00004DA400137BB0
0000018EFEFDB710
0000000011000000
ENDCHAR
STARTCHAR A
ENCODING 65
SWIDTH 562 0
DWIDTH 11 0
BBX 11 16 0 0
BITMAP
000013000000
001BCCE50000
00B5004E4000
04A00004D000
08400000B500
0B1000005A00
0C0000001E00
0C0000000D20
0D0000000C50
4EBA98876E70
4F5333577C90
0D10000007A0
0E20000007A0
0C50000008A0
0A8000000A90
049000000B50
ENDCHAR
STARTCHAR B
ENCODING 66
SWIDTH 741 0
DWIDTH 15 0
BBX 15 14 0 0
BITMAP
0158BDC930000000
6D8CFB77D9000000
1003F0001C600000
0000D4000A600000
000097016D100000
00006B6EF5000000
00003E2AFE700000
00001F2016CD2000
00000E500006E300
00000B7000005D10
0000098000000E50
00001C7000000E60
00004FE73224AE20
0000028BDFFEA200
ENDCHAR
STARTCHAR C
ENCODING 67
SWIDTH 515 0
DWIDTH 10 0
BBX 10 13 0 0
BITMAP
00002AE900
0006EA7C00
006D304600
03C1001000
0B20000000
3900000000
7600000000
9500000000
8600000000
6A00000000
1E30000001
08D657ADF7
008EEB8520
ENDCHAR
STARTCHAR D
ENCODING 68
SWIDTH 741 0
DWIDTH 15 0
BBX 15 14 0 -1
BITMAP
0257875100000000
7EB99BFEB4000000
200002F26DB20000
000000E3008E4000
000000B40006E200
000000970000AA00
0000007900002F10
0000006B00000D30
0000006D00000E30
0000005D00006E10
0000003D0004E800
00001952029FA000
000009FFFFC60000
0000000231000000
ENDCHAR
STARTCHAR E
ENCODING 69
SWIDTH 524 0
DWIDTH 10 0
BBX 10 13 0 0
BITMAP
1554444410
5FDDCCBBC2
5C00000000
5C00000000
5C00000000
6D3468BD80
8FCA975200
7900000000
8700000000
9700000000
9700000000
6B445689A4
09EFFFEC81
ENDCHAR
STARTCHAR F
ENCODING 70
SWIDTH 514 0
DWIDTH 10 0
BBX 14 12 -1 0
BITMAP
159BDEEEDC9500
677BF74457BEC1
0004D000000031
0004C000000000
0002D000000000
0004F766640000
01CEFFFFD90000
0000B800000000
00008800000000
00008A00000000
00006D00000000
00003B00000000
ENDCHAR
STARTCHAR G
ENCODING 71
SWIDTH 571 0
DWIDTH 11 0
BBX 12 13 0 -2
BITMAP
000000046400
000018DCAD40
0006D6100000
008B10000000
06C100000000
1E300D99AB30
4B0004666B80
4A0000000880
2D1000001D80
08D64458DF80
006CDB842B80
0000000008D1
000000000140
ENDCHAR
STARTCHAR H
ENCODING 72
SWIDTH 524 0
DWIDTH 10 0
BBX 10 14 0 0
BITMAP
0000000032
37000000B3
49000000C3
3B000000C3
2D000000C3
1F000001D3
0E20017EF4
0D328EB4C4
1EEFA300B5
6FC20000A6
09A0000097
06A0000089
05A000007B
027000003C
ENDCHAR
STARTCHAR I
ENCODING 73
SWIDTH 167 0
DWIDTH 3 0
BBX 3 11 0 0
BITMAP
9200
8800
4C00
1E10
0C30
0A60
0880
07B0
05D0
03F0
01D0
ENDCHAR
STARTCHAR J
ENCODING 74
SWIDTH 439 0
DWIDTH 9 0
BBX 9 14 0 0
BITMAP
000000A200
0000009700
0000007A00
0000005D00
0000002F00
0000000F20
0000000D40
6700000B50
7900000A60
1D20000A60
03C1000B60
005B100C40
0005D64E00
00003BE600
ENDCHAR
STARTCHAR K
ENCODING 75
SWIDTH 468 0
DWIDTH 9 0
BBX 9 12 0 0
BITMAP
5200047000
95006E3000
7705F40000
592E500000
3BC6000000
2F90000000
1FA0000000
1FD9000000
1F2DB10000
0F219E4000
0D4004DA10
0930001AB0
ENDCHAR
STARTCHAR L
ENCODING 76
SWIDTH 346 0
DWIDTH 7 0
BBX 7 12 0 -1
BITMAP
07000000
0F100000
3F000000
5D000000
6B000000
7A000000
88000000
98000000
88000000
4E865310
05CFFF70
00001000
ENDCHAR
STARTCHAR M
ENCODING 77
SWIDTH 534 0
DWIDTH 11 0
BBX 11 13 0 0
BITMAP
210000001000
8D100000D500
2F800004F500
0BF3000CF400
0BCE77CFF300
0B56CC94E400
0C500000C500
0D500000B700
0D5000009900
0D5000008C00
0D5000006E00
0D5000004F10
041000002F10
ENDCHAR
STARTCHAR N
ENCODING 78
SWIDTH 609 0
DWIDTH 12 0
BBX 12 11 0 0
BITMAP
280000000000
2F0000005A00
1F4000004F50
1F9000000CC0
1FE1000004F2
3FF6000000B6
4C4D10000089
5B0990000099
6C01D80001E5
6D002DD88DB0
4B00018BB600
ENDCHAR
STARTCHAR O
ENCODING 79
SWIDTH 609 0
DWIDTH 12 0
BBX 12 10 0 0
BITMAP
003896100000
07E88CFA2000
2D100029E500
870000005F50
9500000006E1
8700000000C6
4D1000000089
0CB1000001D6
02DE61148E90
0018DFEC8300
ENDCHAR
STARTCHAR P
ENCODING 80
SWIDTH 627 0
DWIDTH 13 0
BBX 13 12 0 0
BITMAP
18CFEDB7300000
9B22246AEC4000
6200050017F600
00002B00004E10
00002C00000E30
00002E00005F10
00001F4138E500
00000EFFEA2000
00000D93100000
00000A70000000
00000780000000
00000380000000
ENDCHAR
STARTCHAR Q
ENCODING 81
SWIDTH 642 0
DWIDTH 13 0
BBX 13 14 0 -3
BITMAP
0006AA60000000
01CB78DD400000
0A70001EF70000
2D00000D3D7000
6A00000602E400
79000000004D00
6A000070000C40
1E1000A8000B40
08B2002F418D00
00AE856FFFC200
0005BEEDCF5000
0000000003C500
00000000002DB0
00000000000120
ENDCHAR
STARTCHAR R
ENCODING 82
SWIDTH 579 0
DWIDTH 12 0
BBX 12 14 -1 -1
BITMAP
002567751000
09EBAABDFA10
2D1000003BD1
0405300000C6
0008600004E6
00089248CF90
0006FFEB7200
0004F7000000
0001FE200000
0000D6D20000
0000A45D3000
00006704D600
000016002CB2
00000000018B
ENDCHAR
STARTCHAR S
ENCODING 83
SWIDTH 627 0
DWIDTH 13 0
BBX 12 13 0 -1
BITMAP
0002ADEDB600
002D51005D90
005900000030
002E30000000
0006E7000000
00002AD71000
0000003BE700
350000004CC2
89000000009B
2E300000004F
03C9420003BB
0016BEFFFD81
000000121000
ENDCHAR
STARTCHAR T
ENCODING 84
SWIDTH 581 0
DWIDTH 12 0
BBX 14 13 0 0
BITMAP
44433221000000
6ACEFFFFFDB950
000001C51369C3
000000B4000000
000000A5000000
00000097000000
00000089000000
0000006B000000
0000004D000000
0000002F100000
0000001F400000
0000000D900000
00000008E00000
ENDCHAR
STARTCHAR U
ENCODING 85
SWIDTH 571 0
DWIDTH 11 0
BBX 12 11 0 0
BITMAP
0A3000006000
4B000000D300
67000000E600
77000000C600
680000009800
4A0000006B00
1D0000003F10
0C4000007F60
07C10006FFB0
00DC66CC35F1
002BFD600050
ENDCHAR
STARTCHAR V
ENCODING 86
SWIDTH 421 0
DWIDTH 8 0
BBX 8 11 0 0
BITMAP
31000003
8B00002D
3F40006D
0CA0009B
06F200C8
01E800F5
008E13F1
001E76C0
0009DA70
0002FE10
00008700
ENDCHAR
STARTCHAR W
ENCODING 87
SWIDTH 703 0
DWIDTH 14 0
BBX 14 10 0 0
BITMAP
82000000000710
C4000000000C70
C60000000009D0
B70001100003F3
A80005900000D7
8A0005D000009A
5D0007F400007A
1E303EDD1000C6
08D8E80AD66CB0
008C50007EE800
ENDCHAR
STARTCHAR X
ENCODING 88
SWIDTH 534 0
DWIDTH 11 0
BBX 11 13 0 -2
BITMAP
022000000000
03D000004B40
00B70006E400
002D207C2000
0007CBA10000
0002FB000000
000BFC000000
009B2D700000
04E103E40000
0D50005E1000
6B0000079000
940000000000
100000000000
ENDCHAR
STARTCHAR Y
ENCODING 89
SWIDTH 403 0
DWIDTH 8 0
BBX 8 14 0 -1
BITMAP
82000001
8900004A
2E400088
07E300E5
006E98F1
0003BFA0
00000E40
00004D00
00009800
0000C400
0000F100
0000F000
0001F100
00003000
ENDCHAR
STARTCHAR Z
ENCODING 90
SWIDTH 571 0
DWIDTH 11 0
BBX 12 13 0 0
BITMAP
025541000000
7FB9AEA10000
310001A90000
0000001E0000
0000000E0000
0000005C0000
000369EEB920
00ADCFF97600
00000D600000
00006A000000
0003E2000000
0009B247BEF1
0004EFFDA620
ENDCHAR
STARTCHAR bracketleft
ENCODING 91
SWIDTH 477 0
DWIDTH 10 0
BBX 11 17 0 -2
BITMAP
000000001000
000048CEC100
049ED8410000
8E8200000000
6C0000000000
2F1000000000
0D7000000000
099000000000
05B000000000
02D000000000
00E000000000
00C200000000
00A400000000
008600000000
007800000000
006E9ABCDC80
003B75544440
ENDCHAR
STARTCHAR backslash
ENCODING 92
SWIDTH 430 0
DWIDTH 9 0
BBX 9 11 0 0
BITMAP
8100000000
6C10000000
0BB0000000
01EA000000
004F800000
0007F50000
0000AE3000
00001CD100
000002E800
0000006F20
0000001D20
ENDCHAR
STARTCHAR bracketright
ENCODING 93
SWIDTH 430 0
DWIDTH 9 0
BBX 9 19 0 -2
BITMAP
6986310000
27ADFF6000
000017F100
000000E500
000000A800
0000008800
0000005900
0000003A00
0000002B00
0000001C00
0000001D00
0000001D00
0000000E00
0000000F00
0000000F10
0000001F20
0000001F30
069999AF40
07DDDDDC20
ENDCHAR
STARTCHAR asciicircum
ENCODING 94
SWIDTH 375 0
DWIDTH 8 0
BBX 6 5 1 10
BITMAP
006300
00ED10
09DFC0
9D24F5
510042
ENDCHAR
STARTCHAR underscore
ENCODING 95
SWIDTH 656 0
DWIDTH 13 0
BBX 13 3 0 0
BITMAP
01000000000000
3CECA998777730
0014689BCDEFA0
ENDCHAR
STARTCHAR grave
ENCODING 96
SWIDTH 172 0
DWIDTH 3 0
BBX 4 3 0 8
BITMAP
6C20
08D1
0030
ENDCHAR
STARTCHAR a
ENCODING 97
SWIDTH 505 0
DWIDTH 10 0
BBX 10 10 0 0
BITMAP
000BEA2000
001739E300
0000006D10
0001210C80
03CFEECDE0
3E71004DF4
87000002E6
7800000056
1DC75689B5
017BEFD940
ENDCHAR
STARTCHAR b
ENCODING 98
SWIDTH 497 0
DWIDTH 10 0
BBX 10 13 0 0
BITMAP
5400000000
B700000000
9900000000
7A00000000
4C00000000
2E00000000
0E9BA83000
0CE67AEB20
0B70001AD1
0A600000C7
07C00000A8
02EB5249F4
003CFFEB40
ENDCHAR
STARTCHAR c
ENCODING 99
SWIDTH 449 0
DWIDTH 9 0
BBX 9 9 0 0
BITMAP
005CED6000
06D303E100
2E20007000
7A00000000
9800000000
8900000000
4E20000000
0AE8422210
006CEFEC30
ENDCHAR
STARTCHAR d
ENCODING 100
SWIDTH 524 0
DWIDTH 10 0
BBX 10 15 0 0
BITMAP
0000005700
0000006F10
0000003F70
0000000EB0
0000000AE0
00000007F2
01BED715F4
0BF98CD8F5
3F50006FF7
7C000006F8
99000007F9
7B00001DFA
3F2002CBBC
0BC68EB14E
01BEC60001
ENDCHAR
STARTCHAR e
ENCODING 101
SWIDTH 515 0
DWIDTH 10 0
BBX 10 11 0 0
BITMAP
0002520000
00AEAD8000
09A001E200
2D1000A500
790003E200
9855AF6000
89AA720000
5C00000000
0D70000000
02DC754563
0017CFEC70
ENDCHAR
STARTCHAR f
ENCODING 102
SWIDTH 376 0
DWIDTH 8 0
BBX 11 15 -1 0
BITMAP
000000100000
00004DFD5000
0002E614E600
000960003D10
000D00000000
001D00000000
002E00000000
002F10000000
026F96430000
1DADFDEB0000
0006E0000000
0000D6000000
00006E100000
00000DA00000
000004E00000
ENDCHAR
STARTCHAR g
ENCODING 103
SWIDTH 366 0
DWIDTH 7 0
BBX 11 19 -3 -10
BITMAP
000000030000
000006EEB000
00005D20B500
0001D2008900
0006A0008C00
000980009E00
0007C002EF00
0001DDBEEF10
000017835F20
000000002F20
000000000F30
000000000D30
000000000C40
430000000C50
960000000E30
5D2000002F10
08E820008B00
004CFD9AF500
000038AB5000
ENDCHAR
STARTCHAR h
ENCODING 104
SWIDTH 427 0
DWIDTH 9 0
BBX 9 14 -1 0
BITMAP
3B00000000
1F10000000
0D60000000
09A0000000
06C0000000
03EAFF9000
01FD78D800
00F1001D20
00D2000860
00C40006A0
00B60006C0
00A80007C0
00990008B0
0067000870
ENDCHAR
STARTCHAR i
ENCODING 105
SWIDTH 174 0
DWIDTH 4 0
BBX 4 12 0 0
BITMAP
A500
2200
0000
0920
0B30
0B40
0B70
0A90
09C0
07F0
04F1
01D1
ENDCHAR
STARTCHAR j
ENCODING 106
SWIDTH 200 0
DWIDTH 4 0
BBX 8 21 -3 -9
BITMAP
00036000
0002B000
00000000
00000000
00005600
00005C00
00002F10
00000F50
00000D80
00000AB0
000007D0
000004F1
000002F2
000000F4
270000C5
1E1000B6
0C8000A7
04E200A7
009C10A6
000AEBF3
00006DB0
ENDCHAR
STARTCHAR k
ENCODING 107
SWIDTH 403 0
DWIDTH 8 0
BBX 8 13 0 0
BITMAP
10000000
B0000000
D2000000
A5000000
79002C40
5C00C600
2E086000
0FD90000
0DE10000
0DD00000
0DFB2000
0D68FB74
0D103AD9
ENDCHAR
STARTCHAR l
ENCODING 108
SWIDTH 120 0
DWIDTH 2 0
BBX 2 11 0 0
BITMAP
67
7B
7B
7C
7C
7D
7D
7D
6D
5C
4A
ENDCHAR
STARTCHAR m
ENCODING 109
SWIDTH 750 0
DWIDTH 15 0
BBX 15 9 0 0
BITMAP
0000000001650000
45ADB5006EEEB000
7FD55E69E501D800
6F3004FF40004E00
5E0000CB00000E40
4E00007C00000B60
4F00003F20000B70
3F10000A20000D50
0800000000000C20
ENDCHAR
STARTCHAR n
ENCODING 110
SWIDTH 459 0
DWIDTH 9 0
BBX 9 9 0 0
BITMAP
0029ED5000
6BE736F400
6F50008C00
6F00001F30
5E00000B80
3F100008B0
1F400007C0
0C700006C0
0480000780
ENDCHAR
STARTCHAR o
ENCODING 111
SWIDTH 487 0
DWIDTH 10 0
BBX 10 8 0 0
BITMAP
0039DFC400
07E844BF40
3D200007C0
86000000E2
96000002F2
6C00001CD0
0CC536DE30
018DFD9100
ENDCHAR
STARTCHAR p
ENCODING 112
SWIDTH 520 0
DWIDTH 10 0
BBX 10 14 0 -7
BITMAP
004ACED810
08FA535BE2
3F4000009B
8F2000003E
9F4820008E
8F5BFCBEF5
5F70367510
2F90000000
0EB0000000
0BD0000000
07F1000000
03F3000000
00D6000000
0068000000
ENDCHAR
STARTCHAR q
ENCODING 113
SWIDTH 412 0
DWIDTH 8 0
BBX 8 17 0 -7
BITMAP
003BED60
04E414E5
0D4000A7
5B0000E6
870001F4
950003F3
780004F2
2E3005F1
08FCBEE0
00488AE0
000002F0
000001F1
000000F2
000000F3
000000E4
000000B5
00000022
ENDCHAR
STARTCHAR r
ENCODING 114
SWIDTH 346 0
DWIDTH 7 0
BBX 7 9 0 0
BITMAP
239EFC30
AE524770
9A000000
79000000
5C000000
1F200000
0C600000
07A00000
01A00000
ENDCHAR
STARTCHAR s
ENCODING 115
SWIDTH 514 0
DWIDTH 10 0
BBX 10 10 0 0
BITMAP
0001100000
05CFFD4000
2E5003D000
3D0000C000
0AB5310000
0049BDEB50
00000005E6
44000000AB
2EA42225E7
028CEFFD70
ENDCHAR
STARTCHAR t
ENCODING 116
SWIDTH 328 0
DWIDTH 7 0
BBX 7 12 0 0
BITMAP
00790000
007B0000
007C0000
008D0000
9EFFFE40
048E3200
006E0000
006E0000
006E0000
005F0000
002F0000
000A1000
ENDCHAR
STARTCHAR u
ENCODING 117
SWIDTH 501 0
DWIDTH 10 0
BBX 10 10 0 0
BITMAP
4500000000
A700000810
A500000D50
9700000D70
7A00000D80
3E10002F90
0C8000BFC0
03F73AB2E2
004DE910A8
0000000046
ENDCHAR
STARTCHAR v
ENCODING 118
SWIDTH 389 0
DWIDTH 8 0
BBX 8 8 0 0
BITMAP
51000000
8B000084
2F3004D0
09900B70
02E12F20
00AA7B00
002EF500
0006C000
ENDCHAR
STARTCHAR w
ENCODING 119
SWIDTH 656 0
DWIDTH 13 0
BBX 13 9 0 0
BITMAP
03000000000000
4A000000001000
A8000030008700
C50000D3001E10
B50000D5000B60
890000E8000A80
2E1006FD000D80
08B5AF7CC8CF30
008ED5018AA400
ENDCHAR
STARTCHAR x
ENCODING 120
SWIDTH 448 0
DWIDTH 9 0
BBX 9 9 0 -1
BITMAP
8100000680
8D20009D30
0AD22CA100
00AEE60000
002FE20000
00A6CE2000
07700BE200
0B0000CC00
0000001C40
ENDCHAR
STARTCHAR y
ENCODING 121
SWIDTH 487 0
DWIDTH 10 0
BBX 10 19 0 -10
BITMAP
4100000240
A300000480
95000004B0
88000003E0
4D000002F1
0D400003F3
05C1002DF4
008D8AE8C5
0004971085
0000000076
0000000086
0000000095
00000000B4
00000000D3
05000001F1
0E500004C0
07F7000B70
006EC8CD10
00017B9200
ENDCHAR
STARTCHAR z
ENCODING 122
SWIDTH 459 0
DWIDTH 9 0
BBX 9 11 0 0
BITMAP
0035510000
4EDCCE3000
570007A000
000006A000
00000B6000
1457AFB600
2BBDF64100
002E500000
00C9000010
03FB569E80
019EFDA500
ENDCHAR
STARTCHAR braceleft
ENCODING 123
SWIDTH 393 0
DWIDTH 8 0
BBX 8 20 0 -2
BITMAP
0005BC90
02CC63A4
1D900000
7D000000
97000000
77000000
2D200000
07E71000
006DF900
002CFF20
17D83990
27100AA0
00005E30
0007D400
00AB1000
06C00000
0A500000
08800000
03F82255
005DDDA4
ENDCHAR
STARTCHAR bar
ENCODING 124
SWIDTH 149 0
DWIDTH 3 0
BBX 3 13 0 0
BITMAP
8100
8500
5900
1D00
0E00
0C30
0B40
0B50
0B60
0A70
0A70
0970
0870
ENDCHAR
STARTCHAR braceright
ENCODING 125
SWIDTH 440 0
DWIDTH 9 0
BBX 9 24 0 -5
BITMAP
6CCCB81000
BB435CB000
271001F300
000000F400
00000AC000
0000AD2000
000AB10000
008B000000
00B7000000
007FEEE100
007C543000
0079000000
002E700000
0002D60000
00001D3000
000005C000
000000B600
0000003C00
0000000D20
0000000B40
2000000D30
D500009C00
5EC67DD200
0168750000
ENDCHAR
STARTCHAR asciitilde
ENCODING 126
SWIDTH 402 0
DWIDTH 8 0
BBX 8 3 0 8
BITMAP
19B50084
781ACD80
54003400
ENDCHAR
STARTCHAR nonbreakingspace
ENCODING 160
SWIDTH 375 0
DWIDTH 8 0
BBX 1 1 0 0
BITMAP
00
ENDCHAR
STARTCHAR exclamdown
ENCODING 161
SWIDTH 149 0
DWIDTH 3 0
BBX 3 14 0 -1
BITMAP
7E60
3940
0000
0000
0A00
1E00
2D00
2D00
2D00
2D00
2C00
2C00
2C00
1400
ENDCHAR
STARTCHAR cent
ENCODING 162
SWIDTH 449 0
DWIDTH 9 0
BBX 9 13 0 -2
BITMAP
0001500000
0001D00000
003AFA4000
04D5C8E100
1E30B58000
7A00B71000
9800B70000
8900A70000
5E20A70000
1DE7B81200
019EFFDB40
0000950000
0000100000
ENDCHAR
STARTCHAR sterling
ENCODING 163
SWIDTH 758 0
DWIDTH 15 0
BBX 15 15 0 0
BITMAP
0000000000464000
000000001CDBDC10
00000000A8000B70
00000002C0000280
0000000860000000
0000001E20000000
000037DFFFFE0000
003ECADF72240000
0000007800000000
000000A200000000
000001C000000000
0000078000000000
49998E9663000000
BFFFFEEFFF600000
4DFC500011000000
ENDCHAR
STARTCHAR currency
ENCODING 164
SWIDTH 618 0
DWIDTH 12 0
BBX 12 11 0 0
BITMAP
360000000011
1DA15BEE95D3
02DEE978DF40
008C10001A60
00D2000002B0
00E0000002C0
00C300000990
006C10008E20
00BCDA9DF500
04D113425D20
033000000420
ENDCHAR
STARTCHAR yen
ENCODING 165
SWIDTH 389 0
DWIDTH 8 0
BBX 8 16 0 -1
BITMAP
2B100001
0D60006D
06B001E5
01D008C0
00851F50
002D9C00
000AF500
0004D000
59ABE840
0239C760
145AC510
2ABEEC50
000B8000
000C7000
000E6000
00010000
ENDCHAR
STARTCHAR brokenbar
ENCODING 166
SWIDTH 117 0
DWIDTH 2 0
BBX 2 13 0 -1
BITMAP
32
6A
6A
6A
69
45
67
8A
8A
7B
6B
3A
01
ENDCHAR
STARTCHAR section
ENCODING 167
SWIDTH 514 0
DWIDTH 10 0
BBX 11 14 0 0
BITMAP
000231000000
03CFFFC50000
0C91016E8000
0B500002A000
03D853100000
05DFFEEE9100
3F720001AC00
3F0000004F10
0CC53335CC00
017BDEFFD100
00000005E600
18100000AA00
09D63225E700
004BDFFD7000
ENDCHAR
STARTCHAR dieresis
ENCODING 168
SWIDTH 397 0
DWIDTH 8 0
BBX 6 3 1 8
BITMAP
160161
8F47F6
150150
ENDCHAR
STARTCHAR copyright
ENCODING 169
SWIDTH 667 0
DWIDTH 13 0
BBX 13 13 0 -1
BITMAP
00000220000000
0007EEFEA30000
00991015CF8000
05B019EC45E600
0D30B705D03E20
3C04A000700890
4A0880000002D0
3C0980000000E0
0E45D1000001F0
08E38DDDED2BA0
00BF82258AF900
0006CFFDB72000
00000010000000
ENDCHAR
STARTCHAR ordfeminine
ENCODING 170
SWIDTH 266 0
DWIDTH 5 0
BBX 5 6 0 5
BITMAP
015000
025900
034650
5849A0
700070
2ABB60
ENDCHAR
STARTCHAR guillemotleft
ENCODING 171
SWIDTH 755 0
DWIDTH 15 0
BBX 14 10 0 0
BITMAP
00000000000025
000000001007E6
0000002AC3CB20
000006E87E6000
0001AC4BB20000
004D73D8000000
08D31EF9641000
8F83038ADEFE80
6BEFFDA60014A2
0001357D600000
ENDCHAR
STARTCHAR logicalnot
ENCODING 172
SWIDTH 369 0
DWIDTH 7 0
BBX 7 3 0 5
BITMAP
4FFFFFD0
111002D0
000003B0
ENDCHAR
STARTCHAR hyphen_
ENCODING 173
SWIDTH 375 0
DWIDTH 8 0
BBX 7 3 0 4
BITMAP
02456510
6FEDCD90
21000000
ENDCHAR
STARTCHAR registered
ENCODING 174
SWIDTH 708 0
DWIDTH 14 0
BBX 14 12 0 0
BITMAP
00004775100000
002CB9BEF91000
01C400016DC100
0899DDCCA4BB00
0E2A25006E1C50
3C005C019E15B0
4A004FDC8200E0
2D003EA10000E1
0C800E4C3002E1
04F80902B76E60
005ED757BFC400
00017AA8520000
ENDCHAR
STARTCHAR macron
ENCODING 175
SWIDTH 287 0
DWIDTH 6 0
BBX 6 2 0 9
BITMAP
08BCC6
3A7566
ENDCHAR
STARTCHAR degree
ENCODING 176
SWIDTH 254 0
DWIDTH 5 0
BBX 5 6 0 6
BITMAP
014100
2A8B00
700630
700440
810B10
2BC600
ENDCHAR
STARTCHAR plusminus
ENCODING 177
SWIDTH 459 0
DWIDTH 9 0
BBX 9 10 0 0
BITMAP
0005200000
0009800000
0006C00000
0004F63100
49DFFFFFC0
4632F71110
0000C70000
0000B82200
06BEFEFF90
0542000000
ENDCHAR
STARTCHAR twosuperior
ENCODING 178
SWIDTH 296 0
DWIDTH 6 0
BBX 5 7 0 4
BITMAP
003700
008460
001090
0000A0
000360
9A5900
5BABA0
ENDCHAR
STARTCHAR threesuperior
ENCODING 179
SWIDTH 204 0
DWIDTH 4 0
BBX 4 7 0 5
BITMAP
5750
5273
14A1
4CB1
0039
A109
2AB8
ENDCHAR
STARTCHAR acute
ENCODING 180
SWIDTH 180 0
DWIDTH 4 0
BBX 4 4 0 7
BITMAP
01A2
3E70
B500
1000
ENDCHAR
STARTCHAR mu
ENCODING 181
SWIDTH 501 0
DWIDTH 10 0
BBX 10 12 0 -2
BITMAP
2300000000
9700000500
B500000D40
A600000D70
A900000D80
AD00001E90
AF50008FB0
ADE306F9F1
A6AFEF60E7
A502520079
B500000000
2100000000
ENDCHAR
STARTCHAR paragraph
ENCODING 182
SWIDTH 413 0
DWIDTH 8 0
BBX 8 12 0 -1
BITMAP
00023310
07FFFFE1
4FFFFEF3
8FFFF9B6
9FFFF8A7
2ABAE7A8
0000A6A8
000096A8
0000A6B8
0000A6A7
000097A5
00002141
ENDCHAR
STARTCHAR periodcentered
ENCODING 183
SWIDTH 212 0
DWIDTH 4 0
BBX 3 3 1 3
BITMAP
7A10
EF50
3500
ENDCHAR
STARTCHAR cedilla
ENCODING 184
SWIDTH 445 0
DWIDTH 9 0
BBX 6 8 3 -7
BITMAP
400000
A30000
781000
07CC50
0002E2
9700D3
1CDC80
001100
ENDCHAR
STARTCHAR onesuperior
ENCODING 185
SWIDTH 197 0
DWIDTH 4 0
BBX 5 8 -1 4
BITMAP
000170
000580
001D60
01BE40
1B3D20
130D00
000C00
000800
ENDCHAR
STARTCHAR ordmasculine
ENCODING 186
SWIDTH 254 0
DWIDTH 5 0
BBX 5 6 0 6
BITMAP
014100
2A8B00
700630
700440
810B10
2BC600
ENDCHAR
STARTCHAR guillemotright
ENCODING 187
SWIDTH 659 0
DWIDTH 13 0
BBX 13 10 0 0
BITMAP
12000940000000
4F6007F9300000
04DD833AFD9510
0005AEFA15AF50
000000CC009E20
000008E31AD300
0001BC23DB1000
005E917E700000
09E50AD3000000
5B200610000000
ENDCHAR
STARTCHAR onequarter
ENCODING 188
SWIDTH 626 0
DWIDTH 13 0
BBX 12 16 0 0
BITMAP
000000100000
000000A00000
000501B00000
000B03800000
004D07500000
04DB0B200000
3B590D000000
41673A000000
007576130000
0072B3760000
0001D0C10013
0004A0A00096
000860B207F3
000D103DEAD2
003C000000A4
003600000094
ENDCHAR
STARTCHAR onehalf
ENCODING 189
SWIDTH 566 0
DWIDTH 11 0
BBX 11 16 0 -1
BITMAP
000000100000
000220A00000
000840C00000
000B21B00000
006F15800000
05EE09400000
3C4C0D100000
924A2C05B600
005868080B00
0076A4000920
0063E1000920
0004B0000B00
000873103800
000D4FE9D200
003C06A99D70
004600000000
ENDCHAR
STARTCHAR threequarters
ENCODING 190
SWIDTH 566 0
DWIDTH 11 0
BBX 11 16 0 -2
BITMAP
000000200000
000000A00000
5AA200B00000
200800A00000
16B304800000
18C507500000
100A1B470000
84055D740000
08BB5A900080
0000869004A0
0000C2754E80
0001D01BC780
000590000290
000A50000190
000D10000000
000900000000
ENDCHAR
STARTCHAR questiondown
ENCODING 191
SWIDTH 272 0
DWIDTH 5 0
BBX 6 15 0 0
BITMAP
3E0000
030000
000000
000000
000000
3A9600
047F40
006F10
02E800
0BC000
3F3000
6C0000
6B0000
1D6236
02ADC4
ENDCHAR
STARTCHAR Agrave
ENCODING 192
SWIDTH 562 0
DWIDTH 11 0
BBX 11 18 0 0
BITMAP
00009A100000
00000AB00000
000013300000
001BCCE50000
00B5004E4000
04A00004D000
08400000B500
0B1000005A00
0C0000001E00
0C0000000D20
0D0000000C50
4EBA98876E70
4F5333577C90
0D10000007A0
0E20000007A0
0C50000008A0
0A8000000A90
049000000B50
ENDCHAR
STARTCHAR Aacute
ENCODING 193
SWIDTH 562 0
DWIDTH 11 0
BBX 11 19 0 0
BITMAP
00004A000000
0007D3000000
002D20000000
000113000000
001BCCE50000
00B5004E4000
04A00004D000
08400000B500
0B1000005A00
0C0000001E00
0C0000000D20
0D0000000C50
4EBA98876E70
4F5333577C90
0D10000007A0
0E20000007A0
0C50000008A0
0A8000000A90
049000000B50
ENDCHAR
STARTCHAR Acircumflex
ENCODING 194
SWIDTH 562 0
DWIDTH 11 0
BBX 11 20 0 0
BITMAP
000045000000
0000BF300000
0006EEE20000
006E32E80000
004213340000
001BCCE50000
00B5004E4000
04A00004D000
08400000B500
0B1000005A00
0C0000001E00
0C0000000D20
0D0000000C50
4EBA98876E70
4F5333577C90
0D10000007A0
0E20000007A0
0C50000008A0
0A8000000A90
049000000B50
ENDCHAR
STARTCHAR Atilde
ENCODING 195
SWIDTH 562 0
DWIDTH 11 0
BBX 11 18 0 0
BITMAP
008C60076000
05B18DCA0000
036015500000
001BCCE50000
00B5004E4000
04A00004D000
08400000B500
0B1000005A00
0C0000001E00
0C0000000D20
0D0000000C50
4EBA98876E70
4F5333577C90
0D10000007A0
0E20000007A0
0C50000008A0
0A8000000A90
049000000B50
ENDCHAR
STARTCHAR Adieresis
ENCODING 196
SWIDTH 562 0
DWIDTH 11 0
BBX 11 19 0 0
BITMAP
000620530000
003FA1FC0000
000520420000
000013000000
001BCCE50000
00B5004E4000
04A00004D000
08400000B500
0B1000005A00
0C0000001E00
0C0000000D20
0D0000000C50
4EBA98876E70
4F5333577C90
0D10000007A0
0E20000007A0
0C50000008A0
0A8000000A90
049000000B50
ENDCHAR
STARTCHAR Aring
ENCODING 197
SWIDTH 562 0
DWIDTH 11 0
BBX 11 19 0 0
BITMAP
000013000000
000699800000
000900B00000
0006AB600000
001BCCE60000
00B5004E4000
04A00004D000
08400000B500
0B1000005A00
0C0000001E00
0C0000000D20
0D0000000C50
4EBA98876E70
4F5333577C90
0D10000007A0
0E20000007A0
0C50000008A0
0A8000000A90
049000000B50
ENDCHAR
STARTCHAR AE
ENCODING 198
SWIDTH 960 0
DWIDTH 19 0
BBX 19 16 0 0
BITMAP
00001300000000000000
001BCCE5000000000000
00B5004E400000000000
04A00004D05665444300
08400000B6FCCBBBAB40
0B1000005CF000000000
0C0000001FF000000000
0C0000000DF000000000
0D0000000CF4468BDB00
4EBA98876EFB98752000
4F5333577CC000000000
0D10000007B000000000
0E20000007A000000000
0C50000007B000000000
0A8000000AD65679AB70
049000000B9CEEEDB820
ENDCHAR
STARTCHAR Ccedilla
ENCODING 199
SWIDTH 515 0
DWIDTH 10 0
BBX 10 20 0 -7
BITMAP
00002AE900
0006EA7C00
006D304600
03C1001000
0B20000000
3900000000
7600000000
9500000000
8600000000
6A00000000
1E30000001
08D657ADF7
008FEB8520
002C000000
000D300000
0003ACA100
0000008A00
003B305B00
0006ECC300
0000010000
ENDCHAR
STARTCHAR Egrave
ENCODING 200
SWIDTH 524 0
DWIDTH 10 0
BBX 10 16 0 0
BITMAP
0002D50000
00004E4000
0000021000
1554444410
5FDDCCBBC2
5C00000000
5C00000000
5C00000000
6D3468BD80
8FCA975200
7900000000
8700000000
9700000000
9700000000
6B445689A4
09EFFFEC81
ENDCHAR
STARTCHAR Eacute
ENCODING 201
SWIDTH 524 0
DWIDTH 10 0
BBX 10 16 0 0
BITMAP
00001A3000
0002D70000
000B600000
1555444410
5FDDCCBBC2
5C00000000
5C00000000
5C00000000
6D3468BD80
8FCA975200
7900000000
8700000000
9700000000
9700000000
6B445689A4
09EFFFEC81
ENDCHAR
STARTCHAR Ecircumflex
ENCODING 202
SWIDTH 524 0
DWIDTH 10 0
BBX 10 18 0 0
BITMAP
0000180000
00006F8000
0002EDF500
002D80AD00
0025000500
1554444410
5FDDCCBBC2
5C00000000
5C00000000
5C00000000
6D3468BD80
8FCA975200
7900000000
8700000000
9700000000
9700000000
6B445689A4
09EFFFEC81
ENDCHAR
STARTCHAR Edieresis
ENCODING 203
SWIDTH 524 0
DWIDTH 10 0
BBX 10 16 0 0
BITMAP
0006106200
005F83FA00
0005105200
1554444410
5FDDCCBBC2
5C00000000
5C00000000
5C00000000
6D3468BD80
8FCA975200
7900000000
8700000000
9700000000
9700000000
6B445689A4
09EFFFEC81
ENDCHAR
STARTCHAR Igrave
ENCODING 204
SWIDTH 167 0
DWIDTH 3 0
BBX 4 15 -1 0
BITMAP
3D40
05E3
0021
0000
0920
0880
04C0
01E1
00C3
00A6
0088
007B
005D
003F
001D
ENDCHAR
STARTCHAR Iacute
ENCODING 205
SWIDTH 167 0
DWIDTH 3 0
BBX 4 15 -1 0
BITMAP
0077
1BB1
6A00
0100
0920
0880
04C0
01E1
00C3
00A6
0088
007B
005D
003F
001D
ENDCHAR
STARTCHAR Icircumflex
ENCODING 206
SWIDTH 167 0
DWIDTH 3 0
BBX 6 18 -1 0
BITMAP
006300
00DD20
08DFC0
9D24F6
510033
000000
000000
092000
088000
04C000
01E100
00C300
00A600
008800
007B00
005D00
003F00
001D00
ENDCHAR
STARTCHAR Idieresis
ENCODING 207
SWIDTH 167 0
DWIDTH 3 0
BBX 5 14 -2 0
BITMAP
430440
FD0DE0
430330
009200
008800
004C00
001E10
000C30
000A60
000880
0007B0
0005D0
0003F0
0001D0
ENDCHAR
STARTCHAR Eth
ENCODING 208
SWIDTH 741 0
DWIDTH 15 0
BBX 15 14 0 -1
BITMAP
0257875100000000
7EB99BFEB4000000
200004F26DB20000
000001F2008E4000
000000D40006E200
000001B84510AA00
00004FFEDDB02F10
0000236A00000D30
0000004D00000E30
0000004E00006E10
0000003D0004E800
00001953029FA000
000009FFFFC60000
0000000231000000
ENDCHAR
STARTCHAR Ntilde
ENCODING 209
SWIDTH 609 0
DWIDTH 12 0
BBX 12 14 0 0
BITMAP
0007C7005700
003C17DBB100
002800251000
280000000000
2F0000005A00
1F4000004F50
1F9000000CC0
1FE1000004F2
3FF6000000B6
4C4D10000089
5B0990000099
6C01D80001E5
6D002DD88DB0
4B00018BB600
ENDCHAR
STARTCHAR Ograve
ENCODING 210
SWIDTH 609 0
DWIDTH 12 0
BBX 12 14 0 0
BITMAP
00000C800000
000001C80000
000000120000
000000000000
003896100000
07E88CFA2000
2D100029E500
870000005F50
9500000006E1
8700000000C6
4D1000000089
0CB1000001D6
02DE61148E90
0018DFEC8300
ENDCHAR
STARTCHAR Oacute
ENCODING 211
SWIDTH 609 0
DWIDTH 12 0
BBX 12 14 0 0
BITMAP
000001B20000
00003E700000
0000B5000000
000010000000
003896100000
07E88CFA2000
2D100029E500
870000005F50
9500000006E1
8700000000C6
4D1000000089
0CB1000001D6
02DE61148E90
0018DFEC8300
ENDCHAR
STARTCHAR Ocircumflex
ENCODING 212
SWIDTH 609 0
DWIDTH 12 0
BBX 12 16 0 0
BITMAP
000080000000
0004F9000000
001DDF700000
02D909F10000
015000500000
000000000000
003896100000
07E88CFA2000
2D100029E500
870000005F50
9500000006E1
8700000000C6
4D1000000089
0CB1000001D6
02DE61148E90
0018DFEC8300
ENDCHAR
STARTCHAR Otilde
ENCODING 213
SWIDTH 609 0
DWIDTH 12 0
BBX 12 13 0 0
BITMAP
007C60066000
04B17DCB1000
027002500000
003896100000
07E88CFA2000
2D100029E500
870000005F50
9500000006E1
8700000000C6
4D1000000089
0CB1000001D6
02DE61148E90
0018DFEC8300
ENDCHAR
STARTCHAR Odieresis
ENCODING 214
SWIDTH 609 0
DWIDTH 12 0
BBX 12 14 0 0
BITMAP
000061062000
0006F74F9000
000151051000
000000000000
003896100000
07E88CFA2000
2D100029E500
870000005F50
9500000006E1
8700000000C6
4D1000000089
0CB1000001D6
02DE61148E90
0018DFEC8300
ENDCHAR
STARTCHAR multiply
ENCODING 215
SWIDTH 448 0
DWIDTH 9 0
BBX 6 6 1 1
BITMAP
410014
AC12C9
0AEF60
02FE20
1C78D2
480071
ENDCHAR
STARTCHAR Oslash
ENCODING 216
SWIDTH 609 0
DWIDTH 12 0
BBX 12 15 0 -2
BITMAP
000000091000
0000000F1000
0000003C0000
003895880000
07E88CFB1000
2D1004E9E500
870009905F50
95000E4006E1
87005E0000C6
4D10B9000089
0CB2F30001D6
02DEE1148E90
001FEEEC8300
005E10000000
006700000000
ENDCHAR
STARTCHAR Ugrave
ENCODING 217
SWIDTH 571 0
DWIDTH 11 0
BBX 12 14 0 0
BITMAP
00002D400000
000004E30000
000000210000
0A3000006000
4B000000D300
67000000E600
77000000C600
680000009800
4A0000006B00
1D0000003F10
0C4000007F60
07C10006FFB0
00DC66CC35F1
002BFD600050
ENDCHAR
STARTCHAR Uacute
ENCODING 218
SWIDTH 571 0
DWIDTH 11 0
BBX 12 14 0 0
BITMAP
000004A00000
00007D200000
0002D2000000
0A3000006000
4B000000D300
67000000E600
77000000C600
680000009800
4A0000006B00
1D0000003F10
0C4000007F60
07C10006FFB0
00DC66CC35F1
002BFD600050
ENDCHAR
STARTCHAR Ucircumflex
ENCODING 219
SWIDTH 571 0
DWIDTH 11 0
BBX 12 18 0 0
BITMAP
000006300000
00000DD10000
00008DFC0000
0009D24F5000
000510032000
000000000000
000000000000
0A3000006000
4B000000D300
67000000E600
77000000C600
680000009800
4A0000006B00
1D0000003F10
0C4000007F60
07C10006FFB0
00DC66CC35F1
002BFD600050
ENDCHAR
STARTCHAR Udieresis
ENCODING 220
SWIDTH 571 0
DWIDTH 11 0
BBX 12 14 0 0
BITMAP
000350260000
000BF1AF3000
000340250000
0A3000006000
4B000000D300
67000000E600
77000000C600
680000009800
4A0000006B00
1D0000003F10
0C4000007F60
07C10006FFB0
00DC66CC35F1
002BFD600050
ENDCHAR
STARTCHAR Yacute
ENCODING 221
SWIDTH 403 0
DWIDTH 8 0
BBX 8 18 0 -1
BITMAP
00000770
0001BB10
0006A000
00000000
82000001
8900004A
2E400088
07E300E5
006E98F1
0003BFA0
00000E40
00004D00
00009800
0000C400
0000F100
0000F000
0001F100
00003000
ENDCHAR
STARTCHAR Thorn
ENCODING 222
SWIDTH 497 0
DWIDTH 10 0
BBX 9 16 1 -3
BITMAP
1000000000
F400000000
F400000000
F300000000
F200000000
E200000000
DABA830000
DE67AEB200
C70001AD10
B600000C70
AC00000A80
AFB5249F40
988DFEB400
8700000000
7800000000
5900000000
ENDCHAR
STARTCHAR germandbls
ENCODING 223
SWIDTH 590 0
DWIDTH 12 0
BBX 12 17 0 -3
BITMAP
1BDC93000000
4FB78D900000
5E0001D60000
4F0000A60000
3F1016D10000
1F26EF500000
0E32AFE80000
0B50016DD200
096000006D30
0770000005D1
0580000000E5
0490000003F5
04A0599ACE80
05C047753000
06D000000000
0AE000000000
049000000000
ENDCHAR
STARTCHAR agrave
ENCODING 224
SWIDTH 505 0
DWIDTH 10 0
BBX 10 13 0 0
BITMAP
0007C10000
00008D0000
0000030000
000BEA2000
001739E300
0000006D10
0001210C80
03CFEECDE0
3E71004DF4
87000002E6
7800000056
1DC75689B5
017BEFD940
ENDCHAR
STARTCHAR aacute
ENCODING 225
SWIDTH 505 0
DWIDTH 10 0
BBX 10 14 0 0
BITMAP
00001B2000
0003E60000
000B500000
0001000000
000BEA2000
001739E300
0000006D10
0001210C80
03CFEECDE0
3E71004DF4
87000002E6
7800000056
1DC75689B5
017BEFD940
ENDCHAR
STARTCHAR acircumflex
ENCODING 226
SWIDTH 505 0
DWIDTH 10 0
BBX 10 15 0 0
BITMAP
0000360000
00009F5000
0004EDE300
004E51CB00
0033001500
000BEA2000
001739E300
0000006D10
0001210C80
03CFEECDE0
3E71004DF4
87000002E6
7800000056
1DC75689B5
017BEFD940
ENDCHAR
STARTCHAR atilde
ENCODING 227
SWIDTH 505 0
DWIDTH 10 0
BBX 10 14 0 0
BITMAP
019B400930
0881ACD700
0630034000
0000000000
000BEA2000
001739E300
0000006D10
0001210C80
03CFEECDE0
3E71004DF4
87000002E6
7800000056
1DC75689B5
017BEFD940
ENDCHAR
STARTCHAR adieresis
ENCODING 228
SWIDTH 505 0
DWIDTH 10 0
BBX 10 13 0 0
BITMAP
0006106200
005F73F900
0005105100
000BEA2000
001739E300
0000006D10
0001210C80
03CFEECDE0
3E71004DF4
87000002E6
7800000056
1DC75689B5
017BEFD940
ENDCHAR
STARTCHAR aring
ENCODING 229
SWIDTH 505 0
DWIDTH 10 0
BBX 10 13 0 0
BITMAP
0004AC5000
000900B000
0008687000
000BFD2000
001739E300
0000006D10
0001210C80
03CFEECDE0
3E71004DF4
87000002E6
7800000056
1DC75689B5
017BEFD940
ENDCHAR
STARTCHAR ae
ENCODING 230
SWIDTH 881 0
DWIDTH 18 0
BBX 18 11 0 -1
BITMAP
000BEA20005BD91000
001739E309C32B9000
0000006D5C0001E000
0001210CF50002E000
03CFEECDF3005E7000
3E71004EF9DED60000
87000002E721000000
780000007B00000000
1DC75689BFB3000000
017BEFD9519FECCDA1
000000000002576200
ENDCHAR
STARTCHAR ccedilla
ENCODING 231
SWIDTH 449 0
DWIDTH 9 0
BBX 9 15 0 -6
BITMAP
003ACA4000
05E525E100
1E30008000
7A00001000
9800000000
8900000000
4E20000000
0BE7321200
007EEFFC30
002B000000
000C510000
00028BC200
0000007A00
003D406A00
0004DDA100
ENDCHAR
STARTCHAR egrave
ENCODING 232
SWIDTH 515 0
DWIDTH 10 0
BBX 10 13 0 0
BITMAP
000C700000
0002D70000
0002640000
00AEAD8000
09A001E200
2D1000A500
790003E200
9855AF6000
89AA720000
5C00000000
0D70000000
02DC754563
0017CFEC70
ENDCHAR
STARTCHAR eacute
ENCODING 233
SWIDTH 515 0
DWIDTH 10 0
BBX 10 14 0 0
BITMAP
00003B0000
0006E30000
001D300000
0003520000
00AEAD8000
09A001E200
2D1000A500
790003E200
9855AF6000
89AA720000
5C00000000
0D70000000
02DC754563
0017CFEC70
ENDCHAR
STARTCHAR ecircumflex
ENCODING 234
SWIDTH 515 0
DWIDTH 10 0
BBX 10 15 0 0
BITMAP
0000270000
00007F6000
0003EDF400
003E71BC00
0026521500
00AEAD8000
09A001E200
2D1000A500
790003E200
9855AF6000
89AA720000
5C00000000
0D70000000
02DC754563
0017CFEC70
ENDCHAR
STARTCHAR edieresis
ENCODING 235
SWIDTH 515 0
DWIDTH 10 0
BBX 10 13 0 0
BITMAP
0035026000
00BF29F300
0026545000
00AEAD8000
09A001E200
2D1000A500
790003E200
9855AF6000
89AA720000
5C00000000
0D70000000
02DC754563
0017CFEC70
ENDCHAR
STARTCHAR igrave
ENCODING 236
SWIDTH 174 0
DWIDTH 4 0
BBX 4 12 0 0
BITMAP
7800
1BB0
0060
0920
0B30
0B40
0B70
0A90
09C0
07F0
04F1
01D1
ENDCHAR
STARTCHAR iacute
ENCODING 237
SWIDTH 174 0
DWIDTH 4 0
BBX 5 13 -1 0
BITMAP
000400
02C700
1D7000
150000
009200
00B300
00B400
00B700
00A900
009C00
007F00
004F10
001D10
ENDCHAR
STARTCHAR icircumflex
ENCODING 238
SWIDTH 174 0
DWIDTH 4 0
BBX 6 15 -1 0
BITMAP
005300
00DE20
08DFC1
8D24E6
520033
000000
009200
00B300
00B400
00B700
00A900
009C00
007F00
004F10
001D10
ENDCHAR
STARTCHAR idieresis
ENCODING 239
SWIDTH 174 0
DWIDTH 4 0
BBX 6 12 -1 0
BITMAP
670480
DE0BF1
110120
009200
00B300
00B400
00B700
00A900
009C00
007F00
004F10
001D10
ENDCHAR
STARTCHAR eth
ENCODING 240
SWIDTH 407 0
DWIDTH 8 0
BBX 8 12 0 -1
BITMAP
28730000
6A9F9025
0003DDED
005EECB1
002611E2
019CCAE8
1D8114CB
6B00002D
7900004B
3E6003D6
04CFEF90
00023200
ENDCHAR
STARTCHAR ntilde
ENCODING 241
SWIDTH 459 0
DWIDTH 9 0
BBX 9 13 0 0
BITMAP
08C6007600
5B18DCA000
3600240000
0000000000
0029ED5000
6BE736F400
6F50008C00
6F00001F30
5E00000B80
3F100008B0
1F400007C0
0C700006C0
0480000780
ENDCHAR
STARTCHAR ograve
ENCODING 242
SWIDTH 487 0
DWIDTH 10 0
BBX 10 11 0 0
BITMAP
0001D50000
00003E5000
0000021000
0039DFC400
07E844BF40
3D200007C0
86000000E2
96000002F2
6C00001CD0
0CC536DE30
018DFD9100
ENDCHAR
STARTCHAR oacute
ENCODING 243
SWIDTH 487 0
DWIDTH 10 0
BBX 10 12 0 0
BITMAP
00002B1000
0004E50000
000C400000
0001000000
0039DFC400
07E844BF40
3D200007C0
86000000E2
96000002F2
6C00001CD0
0CC536DE30
018DFD9100
ENDCHAR
STARTCHAR ocircumflex
ENCODING 244
SWIDTH 487 0
DWIDTH 10 0
BBX 10 14 0 0
BITMAP
0000630000
0000ED1000
0009DFC000
009D24F500
0051003200
0000000000
0039DFC400
07E844BF40
3D200007C0
86000000E2
96000002F2
6C00001CD0
0CC536DE30
018DFD9100
ENDCHAR
STARTCHAR otilde
ENCODING 245
SWIDTH 487 0
DWIDTH 10 0
BBX 10 11 0 0
BITMAP
009B500750
06919DC900
0450034000
0039DFC400
07E844BF40
3D200007C0
86000000E2
96000002F2
6C00001CD0
0CC536DE30
018DFD9100
ENDCHAR
STARTCHAR odieresis
ENCODING 246
SWIDTH 487 0
DWIDTH 10 0
BBX 10 11 0 0
BITMAP
0026016100
009F37F500
0025015000
0039DFC400
07E844BF40
3D200007C0
86000000E2
96000002F2
6C00001CD0
0CC536DE30
018DFD9100
ENDCHAR
STARTCHAR divide
ENCODING 247
SWIDTH 335 0
DWIDTH 7 0
BBX 6 6 0 1
BITMAP
001800
000900
024552
2DBAAA
000500
000500
ENDCHAR
STARTCHAR oslash
ENCODING 248
SWIDTH 487 0
DWIDTH 10 0
BBX 10 10 0 0
BITMAP
0000000100
0000249900
007DFEF900
0AB40ACF60
4C005E15D0
8601E600E2
970AB003F2
6C6E201CC0
0CF926DE30
0BBDFE9100
ENDCHAR
STARTCHAR ugrave
ENCODING 249
SWIDTH 501 0
DWIDTH 10 0
BBX 10 13 0 0
BITMAP
003D300000
0005E30000
0000210000
4500000000
A700000810
A500000D50
9700000D70
7A00000D80
3E10002F90
0C8000BFC0
03F73AB2E2
004DE910A8
0000000046
ENDCHAR
STARTCHAR uacute
ENCODING 250
SWIDTH 501 0
DWIDTH 10 0
BBX 10 14 0 0
BITMAP
00001B2000
0003E70000
000B500000
0001000000
4500000000
A700000810
A500000D50
9700000D70
7A00000D80
3E10002F90
0C8000BFC0
03F73AB2E2
004DE910A8
0000000046
ENDCHAR
STARTCHAR ucircumflex
ENCODING 251
SWIDTH 501 0
DWIDTH 10 0
BBX 10 15 0 0
BITMAP
0000360000
00009F4000
0004EDE200
005E51DA00
0033002400
4500000000
A700000810
A500000D50
9700000D70
7A00000D80
3E10002F90
0C8000BFC0
03F73AB2E2
004DE910A8
0000000046
ENDCHAR
STARTCHAR udieresis
ENCODING 252
SWIDTH 501 0
DWIDTH 10 0
BBX 10 13 0 0
BITMAP
0044035000
00EE0CF100
0043034000
4500000000
A700000810
A500000D50
9700000D70
7A00000D80
3E10002F90
0C8000BFC0
03F73AB2E2
004DE910A8
0000000046
ENDCHAR
STARTCHAR yacute
ENCODING 253
SWIDTH 487 0
DWIDTH 10 0
BBX 10 23 0 -10
BITMAP
00002B0000
0004E50000
000D400000
0001000000
4100000240
A300000480
95000004B0
88000003E0
4D000002F1
0D400003F3
05C1002DF4
008D8AE8C5
0004971085
0000000076
0000000086
0000000095
00000000B4
00000000D3
05000001F1
0E500004C0
07F7000B70
006EC8CD10
00017B9200
ENDCHAR
STARTCHAR thorn
ENCODING 254
SWIDTH 520 0
DWIDTH 10 0
BBX 10 15 0 -4
BITMAP
0100000000
0E00000000
2D00000000
3B01455200
4BBFDACF90
4FA20003D8
4F1000004D
4F0000003F
5FB96447DB
6E8CDEEC81
7D00000000
7C00000000
6C00000000
5C00000000
2900000000
ENDCHAR
STARTCHAR ydieresis
ENCODING 255
SWIDTH 487 0
DWIDTH 10 0
BBX 10 22 0 -10
BITMAP
0044035000
00DE0BF100
0033024000
4100000240
A300000480
95000004B0
88000003E0
4D000002F1
0D400003F3
05C1002DF4
008D8AE8C5
0004971085
0000000076
0000000086
0000000095
00000000B4
00000000D3
05000001F1
0E500004C0
07F7000B70
006EC8CD10
00017B9200
ENDCHAR
STARTCHAR Amacron
ENCODING 256
SWIDTH 562 0
DWIDTH 11 0
BBX 11 18 0 0
BITMAP
002ABCB30000
006975740000
000013000000
001BCCE50000
00B5004E4000
04A00004D000
08400000B500
0B1000005A00
0C0000001E00
0C0000000D20
0D0000000C50
4EBA98876E70
4F5333577C90
0D10000007A0
0E20000007A0
0C50000008A0
0A8000000A90
049000000B50
ENDCHAR
STARTCHAR amacron
ENCODING 257
SWIDTH 505 0
DWIDTH 10 0
BBX 10 13 0 0
BITMAP
003ABCB200
0079657300
0000000000
000BEA2000
001739E300
0000006D10
0001210C80
03CFEECDE0
3E71004DF4
87000002E6
7800000056
1DC75689B5
017BEFD940
ENDCHAR
STARTCHAR Abreve
ENCODING 258
SWIDTH 562 0
DWIDTH 11 0
BBX 11 19 0 0
BITMAP
000170670000
00008DB10000
000000000000
000013000000
001BCCE50000
00B5004E4000
04A00004D000
08400000B500
0B1000005A00
0C0000001E00
0C0000000D20
0D0000000C50
4EBA98876E70
4F5333577C90
0D10000007A0
0E20000007A0
0C50000008A0
0A8000000A90
049000000B50
ENDCHAR
STARTCHAR abreve
ENCODING 259
SWIDTH 505 0
DWIDTH 10 0
BBX 10 13 0 0
BITMAP
0017057000
0008DB1000
0000000000
000BEA2000
001739E300
0000006D10
0001210C80
03CFEECDE0
3E71004DF4
87000002E6
7800000056
1DC75689B5
017BEFD940
ENDCHAR
STARTCHAR Aogonek
ENCODING 260
SWIDTH 562 0
DWIDTH 11 0
BBX 12 19 0 -3
BITMAP
000013000000
001BCCE50000
00B5004E4000
04A00004D000
08400000B500
0B1000005A00
0C0000001E00
0C0000000D20
0D0000000C50
4EBA98876E70
4F5333577C90
0D10000007A0
0E20000007A0
0C50000008A0
0A8000000A90
049000018E50
00000008A100
0000000A7000
00000003ABA1
ENDCHAR
STARTCHAR aogonek
ENCODING 261
SWIDTH 505 0
DWIDTH 10 0
BBX 10 13 0 -3
BITMAP
000BEA2000
001739E300
0000006D10
0001210C80
03CFEECDE0
3E71004DF4
87000002E6
7800000056
1DC75689B5
017BEFFA40
0000079000
000005E752
0000002451
ENDCHAR
STARTCHAR Cacute
ENCODING 262
SWIDTH 515 0
DWIDTH 10 0
BBX 10 16 0 0
BITMAP
000001A200
00003D7000
0000B60000
00003AE900
0006EA7C00
006D304600
03C1001000
0B20000000
3900000000
7600000000
9500000000
8600000000
6A00000000
1E30000001
08D657ADF7
008EEB8520
ENDCHAR
STARTCHAR cacute
ENCODING 263
SWIDTH 449 0
DWIDTH 9 0
BBX 9 13 0 0
BITMAP
0000195000
0001C90000
0009800000
0001000000
005CED6000
06D303E100
2E20007000
7A00000000
9800000000
8900000000
4E20000000
0AE8422210
006CEFEC30
ENDCHAR
STARTCHAR Ccircumflex
ENCODING 264
SWIDTH 515 0
DWIDTH 10 0
BBX 10 18 0 0
BITMAP
0000270000
00007F6000
0003EDF400
003E71BC00
0024001500
00002AE900
0006EA7C00
006D304600
03C1001000
0B20000000
3900000000
7600000000
9500000000
8600000000
6A00000000
1E30000001
08D657ADF7
008EEB8520
ENDCHAR
STARTCHAR ccircumflex
ENCODING 265
SWIDTH 449 0
DWIDTH 9 0
BBX 9 15 0 0
BITMAP
0000810000
0002FB0000
001BDF9000
01CB07F200
0050005100
0000000000
005CED6000
06D303E100
2E20007000
7A00000000
9800000000
8900000000
4E20000000
0AE8422210
006CEFEC30
ENDCHAR
STARTCHAR Cdotaccent
ENCODING 266
SWIDTH 515 0
DWIDTH 10 0
BBX 10 16 0 0
BITMAP
00004C0000
00001A0000
0000000000
00002AE900
0006EA7C00
006D304600
03C1001000
0B20000000
3900000000
7600000000
9500000000
8600000000
6A00000000
1E30000001
08D657ADF7
008EEB8520
ENDCHAR
STARTCHAR cdotaccent
ENCODING 267
SWIDTH 449 0
DWIDTH 9 0
BBX 9 11 0 0
BITMAP
0003D00000
0001A00000
005CED6000
06D303E100
2E20007000
7A00000000
9800000000
8900000000
4E20000000
0AE8422210
006CEFEC30
ENDCHAR
STARTCHAR Ccaron
ENCODING 268
SWIDTH 515 0
DWIDTH 10 0
BBX 10 17 0 0
BITMAP
0000000010
0004B64D80
00000BE600
0000011000
00002AE900
0006EA7C00
006D304600
03C1001000
0B20000000
3900000000
7600000000
9500000000
8600000000
6A00000000
1E30000001
08D657ADF7
008EEB8520
ENDCHAR
STARTCHAR ccaron
ENCODING 269
SWIDTH 449 0
DWIDTH 9 0
BBX 9 13 0 0
BITMAP
0010001000
019B39E100
0004FB2000
0000200000
005CED6000
06D303E100
2E20007000
7A00000000
9800000000
8900000000
4E20000000
0AE8422210
006CEFEC30
ENDCHAR
STARTCHAR Dcaron
ENCODING 270
SWIDTH 741 0
DWIDTH 15 0
BBX 15 17 0 -1
BITMAP
0000010001000000
000019A39D000000
0000005FA1000000
0257875300000000
7EB99BFEB4000000
200002F26DB20000
000000E3008E4000
000000B40006E200
000000970000AA00
0000007900002F10
0000006B00000D30
0000006D00000E30
0000005D00006E10
0000003D0004E800
00001952029FA000
000009FFFFC60000
0000000231000000
ENDCHAR
STARTCHAR dcaron
ENCODING 271
SWIDTH 582 0
DWIDTH 12 0
BBX 12 15 0 0
BITMAP
000000570050
0000006F10E0
0000003F70F3
0000000EB0D4
0000000AE0A5
00000007F211
01BED715F400
0BF98CD8F500
3F50006FF700
7C000006F800
99000007F900
7B00001DFA00
3F2002CBBC00
0BC68EB14E00
01BEC6000100
ENDCHAR
STARTCHAR Dcroat
ENCODING 272
SWIDTH 741 0
DWIDTH 15 0
BBX 15 14 0 -1
BITMAP
0257875100000000
7EB99BFEB4000000
200002F26DB20000
000000E3008E4000
000000B40006E200
000000970000AA00
00005BDEB2002F10
0000889D62000D30
0000006D00000E30
0000005D00006E10
0000003D0004E800
00001952029FA000
000009FFFFC60000
0000000231000000
ENDCHAR
STARTCHAR dcroat
ENCODING 273
SWIDTH 524 0
DWIDTH 10 0
BBX 11 15 0 0
BITMAP
000000330000
0000006D0000
0000004F5000
00003ACFEC40
0000897CE640
00000007F100
01BED715F300
0BF98CD8F500
3F50006FF600
7C000006F800
99000007F900
7B00001DFA00
3F2002CBBC00
0BC68EB14E00
01BEC6000200
ENDCHAR
STARTCHAR Emacron
ENCODING 274
SWIDTH 524 0
DWIDTH 10 0
BBX 10 15 0 0
BITMAP
0019BCB400
005A757500
1554444410
5FDDCCBBC2
5C00000000
5C00000000
5C00000000
6D3468BD80
8FCA975200
7900000000
8700000000
9700000000
9700000000
6B445689A4
09EFFFEC81
ENDCHAR
STARTCHAR emacron
ENCODING 275
SWIDTH 515 0
DWIDTH 10 0
BBX 10 13 0 0
BITMAP
0029BCB400
005A757400
0002520000
00AEAD8000
09A001E200
2D1000A500
790003E200
9855AF6000
89AA720000
5C00000000
0D70000000
02DC754563
0017CFEC70
ENDCHAR
STARTCHAR Ebreve
ENCODING 276
SWIDTH 524 0
DWIDTH 10 0
BBX 10 16 0 0
BITMAP
000801B000
0004CC4000
0000000000
1554444410
5FDDCCBBC2
5C00000000
5C00000000
5C00000000
6D3468BD80
8FCA975200
7900000000
8700000000
9700000000
9700000000
6B445689A4
09EFFFEC81
ENDCHAR
STARTCHAR ebreve
ENCODING 277
SWIDTH 515 0
DWIDTH 10 0
BBX 10 14 0 0
BITMAP
0002607500
0000ADA000
0000000000
0002520000
00AEAD8000
09A001E200
2D1000A500
790003E200
9855AF6000
89AA720000
5C00000000
0D70000000
02DC754563
0017CFEC70
ENDCHAR
STARTCHAR Edotaccent
ENCODING 278
SWIDTH 524 0
DWIDTH 10 0
BBX 10 15 0 0
BITMAP
0000A60000
0000660000
1554444410
5FDDCCBBC2
5C00000000
5C00000000
5C00000000
6D3468BD80
8FCA975200
7900000000
8700000000
9700000000
9700000000
6B445689A4
09EFFFEC81
ENDCHAR
STARTCHAR edotaccent
ENCODING 279
SWIDTH 515 0
DWIDTH 10 0
BBX 10 13 0 0
BITMAP
0003D00000
0001A00000
0002520000
00AEAD8000
09A001E200
2D1000A500
790003E200
9855AF6000
89AA720000
5C00000000
0D70000000
02DC754563
0017CFEC70
ENDCHAR
STARTCHAR Eogonek
ENCODING 280
SWIDTH 524 0
DWIDTH 10 0
BBX 10 16 0 -3
BITMAP
1554444410
5FDDCCBBC2
5C00000000
5C00000000
5C00000000
6D3468BD80
8FCA975200
7900000000
8700000000
9700000000
9700000000
6B445689A4
09EFFFFE81
0000099000
00000B7000
000003AB91
ENDCHAR
STARTCHAR eogonek
ENCODING 281
SWIDTH 515 0
DWIDTH 10 0
BBX 10 14 0 -3
BITMAP
0002520000
00AEAD8000
09A001E200
2D1000A500
790003E200
9855AF6000
89AA720000
5C00000000
0D70000000
02DC754563
0017CFFC70
00000D6000
00000F4000
000004AA80
ENDCHAR
STARTCHAR Ecaron
ENCODING 282
SWIDTH 524 0
DWIDTH 10 0
BBX 10 16 0 0
BITMAP
0000000100
002A93BB00
00007F8100
1554464410
5FDDCCBBC2
5C00000000
5C00000000
5C00000000
6D3468BD80
8FCA975200
7900000000
8700000000
9700000000
9700000000
6B445689A4
09EFFFEC81
ENDCHAR
STARTCHAR ecaron
ENCODING 283
SWIDTH 515 0
DWIDTH 10 0
BBX 10 15 0 0
BITMAP
0000000100
003B84BA00
00008F8000
0000020000
0002520000
00AEAD8000
09A001E200
2D1000A500
790003E200
9855AF6000
89AA720000
5C00000000
0D70000000
02DC754563
0017CFEC70
ENDCHAR
STARTCHAR Gcircumflex
ENCODING 284
SWIDTH 571 0
DWIDTH 11 0
BBX 12 18 0 -2
BITMAP
000000080000
0000004F9000
000001DDF700
00002D909E00
000015000600
000000046400
000018DCAD40
0006D6100000
008B10000000
06C100000000
1E300D99AB30
4B0004666B80
4A0000000880
2D1000001D80
08D64458DF80
006CDB842B80
0000000008D1
000000000140
ENDCHAR
STARTCHAR gcircumflex
ENCODING 285
SWIDTH 366 0
DWIDTH 7 0
BBX 11 25 -3 -10
BITMAP
000000630000
000000ED1000
000009DFC000
00009D24F500
000051004200
000000000000
000000030000
000006EEB000
00005D20B500
0001D2008900
0006A0008C00
000980009E00
0007C002EF00
0001DDBEEF10
000017835F20
000000002F20
000000000F30
000000000D30
000000000C40
430000000C50
960000000E30
5D2000002F10
08E820008B00
004CFD9AF500
000038AB5000
ENDCHAR
STARTCHAR Gbreve
ENCODING 286
SWIDTH 571 0
DWIDTH 11 0
BBX 12 15 0 -2
BITMAP
000170570000
00008DB10000
000000046400
000018DCAD40
0006D6100000
008B10000000
06C100000000
1E300D99AB30
4B0004666B80
4A0000000880
2D1000001D80
08D64458DF80
006CDB842B80
0000000008D1
000000000140
ENDCHAR
STARTCHAR gbreve
ENCODING 287
SWIDTH 366 0
DWIDTH 7 0
BBX 11 21 -3 -10
BITMAP
000026075000
000009DA1000
000000030000
000006EEB000
00005D20B500
0001D2008900
0006A0008C00
000980009E00
0007C002EF00
0001DDBEEF10
000017835F20
000000002F20
000000000F30
000000000D30
000000000C40
430000000C50
960000000E30
5D2000002F10
08E820008B00
004CFD9AF500
000038AB5000
ENDCHAR
STARTCHAR Gdotaccent
ENCODING 288
SWIDTH 571 0
DWIDTH 11 0
BBX 12 15 0 -2
BITMAP
000000970000
000000560000
000000046400
000018DCAD40
0006D6100000
008B10000000
06C100000000
1E300D99AB30
4B0004666B80
4A0000000880
2D1000001D80
08D64458DF80
006CDB842B80
0000000008D1
000000000140
ENDCHAR
STARTCHAR gdotaccent
ENCODING 289
SWIDTH 366 0
DWIDTH 7 0
BBX 11 21 -3 -10
BITMAP
000001E10000
000000A20000
000000030000
000006EEB000
00005D20B500
0001D2008900
0006A0008C00
000980009E00
0007C002EF00
0001DDBEEF10
000017835F20
000000002F20
000000000F30
000000000D30
000000000C40
430000000C50
960000000E30
5D2000002F10
08E820008B00
004CFD9AF500
000038AB5000
ENDCHAR
STARTCHAR Gcommaaccent
ENCODING 290
SWIDTH 571 0
DWIDTH 11 0
BBX 12 18 0 -7
BITMAP
000000046400
000018DCAD40
0006D6100000
008B10000000
06C100000000
1E300D99AB30
4B0004666B80
4A0000000880
2D1000001D80
08D64458DF80
006CDB842B80
0000000008D1
000000000140
00000D300000
00000C600000
00000C600000
00002F200000
000003000000
ENDCHAR
STARTCHAR gcommaaccent
ENCODING 291
SWIDTH 366 0
DWIDTH 7 0
BBX 11 28 -3 -10
BITMAP
000000500000
000000E10000
000000E30000
000000D50000
000000950000
000000110000
000000000000
000000000000
000000000000
000000030000
000006EEB000
00005D20B500
0001D2008900
0006A0008C00
000980009E00
0007C002EF00
0001DDBEEF10
000017835F20
000000002F20
000000000F30
000000000D30
000000000C40
430000000C50
960000000E30
5D2000002F10
08E820008B00
004CFD9AF500
000038AB5000
ENDCHAR
STARTCHAR Hcircumflex
ENCODING 292
SWIDTH 524 0
DWIDTH 10 0
BBX 10 19 0 0
BITMAP
0000270000
00007F7000
0003EDF400
003E70BC00
0024001500
0000000032
37000000B3
49000000C3
3B000000C3
2D000000C3
1F000001D3
0E20017EF4
0D328EB4C4
1EEFA300B5
6FC20000A6
09A0000097
06A0000089
05A000007B
027000003C
ENDCHAR
STARTCHAR hcircumflex
ENCODING 293
SWIDTH 427 0
DWIDTH 9 0
BBX 9 16 -1 0
BITMAP
0000071000
00002FB000
3B00BDF900
1F2BB17F20
0D65000510
09A0000000
06C0000000
03EAFF9000
01FD78D800
00F1001D20
00D2000860
00C40006A0
00B60006C0
00A80007C0
00990008B0
0067000870
ENDCHAR
STARTCHAR hbar
ENCODING 295
SWIDTH 427 0
DWIDTH 9 0
BBX 10 14 -2 0
BITMAP
03B0000000
01F1000000
00D7200000
5FFFF60000
347C110000
003EAFF900
001FD78D80
000F1001D2
000D200086
000C40006A
000B60006C
000A80007C
000990008B
0006700087
ENDCHAR
STARTCHAR Itilde
ENCODING 296
SWIDTH 167 0
DWIDTH 3 0
BBX 8 14 -2 0
BITMAP
1AB40093
871ACD70
63003400
00920000
00880000
004C0000
001E1000
000C3000
000A6000
00088000
0007B000
0005D000
0003F000
0001D000
ENDCHAR
STARTCHAR itilde
ENCODING 297
SWIDTH 174 0
DWIDTH 4 0
BBX 7 14 -1 0
BITMAP
01000010
7CC506B0
D11AFB10
60000000
00000000
00920000
00B30000
00B40000
00B70000
00A90000
009C0000
007F0000
004F1000
001D1000
ENDCHAR
STARTCHAR imacron
ENCODING 299
SWIDTH 174 0
DWIDTH 4 0
BBX 6 13 -1 0
BITMAP
000100
8EFFE2
652241
000000
009200
00B300
00B400
00B700
00A900
009C00
007F00
004F10
001D10
ENDCHAR
STARTCHAR Ibreve
ENCODING 300
SWIDTH 167 0
DWIDTH 3 0
BBX 4 15 0 0
BITMAP
803A
6DC3
0000
0000
9200
8800
4C00
1E10
0C30
0A60
0880
07B0
05D0
03F0
01D0
ENDCHAR
STARTCHAR ibreve
ENCODING 301
SWIDTH 174 0
DWIDTH 4 0
BBX 5 13 -1 0
BITMAP
000100
370940
09C800
000000
009200
00B300
00B400
00B700
00A900
009C00
007F00
004F10
001D10
ENDCHAR
STARTCHAR Iogonek
ENCODING 302
SWIDTH 167 0
DWIDTH 3 0
BBX 4 14 0 -3
BITMAP
9200
8800
4C00
1E10
0C30
0A60
0880
07B0
05D0
03F0
2AE0
C700
E300
5BA8
ENDCHAR
STARTCHAR iogonek
ENCODING 303
SWIDTH 174 0
DWIDTH 4 0
BBX 5 15 -1 -3
BITMAP
0A5000
022000
000000
009200
00B300
00B400
00B700
00A900
009C00
007F00
004F10
03BE10
1E5000
4D1000
08BA50
ENDCHAR
STARTCHAR Idotaccent
ENCODING 304
SWIDTH 167 0
DWIDTH 3 0
BBX 4 15 -1 0
BITMAP
2E10
0A10
0000
0000
0920
0880
04C0
01E1
00C3
00A6
0088
007B
005D
003F
001D
ENDCHAR
STARTCHAR dotlessi
ENCODING 305
SWIDTH 174 0
DWIDTH 4 0
BBX 3 9 1 0
BITMAP
9200
B300
B400
B700
A900
9C00
7F00
4F10
1D10
ENDCHAR
STARTCHAR Jcircumflex
ENCODING 308
SWIDTH 439 0
DWIDTH 9 0
BBX 10 20 0 0
BITMAP
0000007200
000001FC10
00000ADFA0
0000BC16F3
0000510041
0000000000
000000A200
0000009700
0000007A00
0000005D00
0000002F00
0000000F20
0000000D40
6700000B50
7900000A60
1D20000A60
03C1000B60
005B100C40
0005D64E00
00003BE600
ENDCHAR
STARTCHAR jcircumflex
ENCODING 309
SWIDTH 200 0
DWIDTH 4 0
BBX 8 24 -3 -9
BITMAP
00003600
0000AF40
0004EDE2
005E51DA
00330024
00000000
00000000
00005600
00005C00
00002F10
00000F50
00000D80
00000AB0
000007D0
000004F1
000002F2
000000F4
270000C5
1E1000B6
0C8000A7
04E200A7
009C10A6
000AEBF3
00006DB0
ENDCHAR
STARTCHAR Kcommaaccent
ENCODING 310
SWIDTH 468 0
DWIDTH 9 0
BBX 9 19 0 -7
BITMAP
5200047000
95006E3000
7705F40000
592E500000
3BC6000000
2F90000000
1FA0000000
1FD9000000
1F2DB10000
0F219E4000
0D4004DA10
0930001AB0
0000000000
0000000000
0001D30000
0000C60000
0000C50000
0003F20000
0000300000
ENDCHAR
STARTCHAR kcommaaccent
ENCODING 311
SWIDTH 403 0
DWIDTH 8 0
BBX 8 20 0 -7
BITMAP
10000000
B0000000
D2000000
A5000000
79002C40
5C00C600
2E086000
0FD90000
0DE10000
0DD00000
0DFB2000
0D68FB74
0D103AD9
00000000
00000000
000A7000
0008B000
0007A000
000D6000
00030000
ENDCHAR
STARTCHAR Lacute
ENCODING 313
SWIDTH 346 0
DWIDTH 7 0
BBX 7 16 0 -1
BITMAP
00003B00
0006E400
001D3000
00010000
07000000
0F100000
3F000000
5D000000
6B000000
7A000000
88000000
98000000
88000000
4E865310
05CFFF70
00001000
ENDCHAR
STARTCHAR lacute
ENCODING 314
SWIDTH 120 0
DWIDTH 2 0
BBX 4 15 -1 0
BITMAP
0058
09C2
4C10
0000
0670
07B0
07B0
07C0
07C0
07D0
07D0
07D0
06D0
05C0
04A0
ENDCHAR
STARTCHAR Lcommaaccent
ENCODING 315
SWIDTH 346 0
DWIDTH 7 0
BBX 7 18 0 -7
BITMAP
07000000
0F100000
3F000000
5D000000
6B000000
7A000000
88000000
98000000
88000000
4E865310
05CFFF70
00001000
00000000
003D0000
002F2000
001F2000
006D0000
00120000
ENDCHAR
STARTCHAR lcommaaccent
ENCODING 316
SWIDTH 120 0
DWIDTH 2 0
BBX 2 18 0 -7
BITMAP
67
7B
7B
7C
7C
7D
7D
7D
6D
5C
4A
00
00
7A
5E
4D
A9
21
ENDCHAR
STARTCHAR Lcaron
ENCODING 317
SWIDTH 346 0
DWIDTH 7 0
BBX 7 16 0 -1
BITMAP
00041000
00086000
00089000
0006B000
0703B000
0F102000
3F000000
5D000000
6B000000
7A000000
88000000
98000000
88000000
4E865310
05CFFF70
00001000
ENDCHAR
STARTCHAR lcaron
ENCODING 318
SWIDTH 222 0
DWIDTH 4 0
BBX 5 15 0 0
BITMAP
001400
003C00
003F00
001F10
670D20
7B0200
7B0000
7C0000
7C0000
7D0000
7D0000
7D0000
6D0000
5C0000
4A0000
ENDCHAR
STARTCHAR Ldot
ENCODING 319
SWIDTH 346 0
DWIDTH 7 0
BBX 7 12 0 -1
BITMAP
07000000
0F100000
3F000000
5D000000
6B000000
7A4B3000
88AF9000
98261000
88000000
4E865310
05CFFF70
00001000
ENDCHAR
STARTCHAR ldot
ENCODING 320
SWIDTH 333 0
DWIDTH 7 0
BBX 6 11 0 0
BITMAP
670000
7B0000
7B0000
7C0000
7C0000
7D02B4
7D08FB
7D0161
6D0000
5C0000
4A0000
ENDCHAR
STARTCHAR Lslash
ENCODING 321
SWIDTH 346 0
DWIDTH 7 0
BBX 8 11 0 0
BITMAP
00A00000
02F00000
05D00000
07C00000
08A00000
09CA0000
3DF60000
AE700000
0A800000
04FA9762
004ACDC4
ENDCHAR
STARTCHAR lslash
ENCODING 322
SWIDTH 120 0
DWIDTH 2 0
BBX 6 12 -2 0
BITMAP
002600
004D00
004E00
004E00
004F82
005FC4
07EF10
4A6F10
004F10
003F00
002E00
000700
ENDCHAR
STARTCHAR Nacute
ENCODING 323
SWIDTH 609 0
DWIDTH 12 0
BBX 12 14 0 0
BITMAP
000001B20000
00003E700000
0000B5000000
280010000000
2F0000005A00
1F4000004F50
1F9000000CC0
1FE1000004F2
3FF6000000B6
4C4D10000089
5B0990000099
6C01D80001E5
6D002DD88DB0
4B00018BB600
ENDCHAR
STARTCHAR nacute
ENCODING 324
SWIDTH 459 0
DWIDTH 9 0
BBX 9 14 0 0
BITMAP
0000860000
001CA00000
0079000000
0010000000
0000000000
0029ED5000
6BE736F400
6F50008C00
6F00001F30
5E00000B80
3F100008B0
1F400007C0
0C700006C0
0480000780
ENDCHAR
STARTCHAR Ncommaaccent
ENCODING 325
SWIDTH 609 0
DWIDTH 12 0
BBX 12 18 0 -7
BITMAP
280000000000
2F0000005A00
1F4000004F50
1F9000000CC0
1FE1000004F2
3FF6000000B6
4C4D10000089
5B0990000099
6C01D80001E5
6D002DD88DB0
4B00018BB600
000000000000
000000000000
000008800000
000007C00000
000006C00000
00000B800000
000003000000
ENDCHAR
STARTCHAR ncommaaccent
ENCODING 326
SWIDTH 459 0
DWIDTH 9 0
BBX 9 16 0 -7
BITMAP
0029ED5000
6BE736F400
6F50008C00
6F00001F30
5E00000B80
3F100008B0
1F400007C0
0C700006C0
0480000780
0000000000
0000000000
0002E10000
0001D40000
0000D40000
0004E10000
0001200000
ENDCHAR
STARTCHAR Ncaron
ENCODING 327
SWIDTH 609 0
DWIDTH 12 0
BBX 12 16 0 0
BITMAP
000000001000
0003B74C9000
000009F70000
000001200000
000000000000
280000000000
2F0000005A00
1F4000004F50
1F9000000CC0
1FE1000004F2
3FF6000000B6
4C4D10000089
5B0990000099
6C01D80001E5
6D002DD88DB0
4B00018BB600
ENDCHAR
STARTCHAR ncaron
ENCODING 328
SWIDTH 459 0
DWIDTH 9 0
BBX 9 13 0 0
BITMAP
0010001000
008B48E200
0003EC2000
0000200000
0029ED5000
6BE736F400
6F50008C00
6F00001F30
5E00000B80
3F100008B0
1F400007C0
0C700006C0
0480000780
ENDCHAR
STARTCHAR napostrophe
ENCODING 329
SWIDTH 459 0
DWIDTH 9 0
BBX 9 13 0 0
BITMAP
03D1000000
01E3000000
00E3000000
05E0000000
0149ED5000
6BE736F400
6F50008C00
6F00001F30
5E00000B80
3F100008B0
1F400007C0
0C700006C0
0480000780
ENDCHAR
STARTCHAR Omacron
ENCODING 332
SWIDTH 609 0
DWIDTH 12 0
BBX 12 14 0 0
BITMAP
00019BCB5000
0005A7575000
000000000000
000000000000
003896100000
07E88CFA2000
2D100029E500
870000005F50
9500000006E1
8700000000C6
4D1000000089
0CB1000001D6
02DE61148E90
0018DFEC8300
ENDCHAR
STARTCHAR omacron
ENCODING 333
SWIDTH 487 0
DWIDTH 10 0
BBX 10 11 0 0
BITMAP
003ABCB200
0079657300
0000000000
0039DFC400
07E844BF40
3D200007C0
86000000E2
96000002F2
6C00001CD0
0CC536DE30
018DFD9100
ENDCHAR
STARTCHAR Obreve
ENCODING 334
SWIDTH 609 0
DWIDTH 12 0
BBX 12 13 0 0
BITMAP
0000711C0000
00004CC40000
000000000000
003896100000
07E88CFA2000
2D100029E500
870000005F50
9500000006E1
8700000000C6
4D1000000089
0CB1000001D6
02DE61148E90
0018DFEC8300
ENDCHAR
STARTCHAR obreve
ENCODING 335
SWIDTH 487 0
DWIDTH 10 0
BBX 10 12 0 0
BITMAP
00620C0000
002CD60000
0000000000
0000000000
0039DFC400
07E844BF40
3D200007C0
86000000E2
96000002F2
6C00001CD0
0CC536DE30
018DFD9100
ENDCHAR
STARTCHAR Ohungarumlaut
ENCODING 336
SWIDTH 609 0
DWIDTH 12 0
BBX 12 15 0 0
BITMAP
000002000000
0001BA4C0000
0006B2E50000
000102400000
000000000000
003896100000
07E88CFA2000
2D100029E500
870000005F50
9500000006E1
8700000000C6
4D1000000089
0CB1000001D6
02DE61148E90
0018DFEC8300
ENDCHAR
STARTCHAR ohungarumlaut
ENCODING 337
SWIDTH 487 0
DWIDTH 10 0
BBX 10 12 0 0
BITMAP
0000200000
002C76A000
00984E3000
0020320000
0039DFC400
07E844BF40
3D200007C0
86000000E2
96000002F2
6C00001CD0
0CC536DE30
018DFD9100
ENDCHAR
STARTCHAR OE
ENCODING 338
SWIDTH 848 0
DWIDTH 17 0
BBX 17 10 0 0
BITMAP
004AA6116666555300
07D88DD7E777666720
3D1000BEC000000000
8600002FC000000100
9500000CE88ABCB600
87000008B321000000
4D1000098000000000
0CC1000C8000000000
02DE737F9001234520
0017CED6AEFFEECA30
ENDCHAR
STARTCHAR oe
ENCODING 339
SWIDTH 875 0
DWIDTH 18 0
BBX 17 11 0 -1
BITMAP
000000000048930000
0000242009D77E4000
007DFEF75C1006B000
0AB4017FE40004C000
4C000005F0003D7000
86000002F89BE70000
97000003F464100000
5C00001CF600000000
0BC426DE6E50000000
018DFE9204EDA89A80
0000000000169A9500
ENDCHAR
STARTCHAR Racute
ENCODING 340
SWIDTH 579 0
DWIDTH 12 0
BBX 12 17 -1 -1
BITMAP
000000049000
0000008D2000
000002D20000
002567751000
09EBAABDFA10
2D1000003BD1
0405300000C6
0008600004E6
00089248CF90
0006FFEB7200
0004F7000000
0001FE200000
0000D6D20000
0000A45D3000
00006704D600
000016002CB2
00000000018B
ENDCHAR
STARTCHAR racute
ENCODING 341
SWIDTH 346 0
DWIDTH 7 0
BBX 7 13 0 0
BITMAP
0001A300
002D8000
00A60000
00100000
239EFC30
AE524770
9A000000
79000000
5C000000
1F200000
0C600000
07A00000
01A00000
ENDCHAR
STARTCHAR Rcommaaccent
ENCODING 342
SWIDTH 579 0
DWIDTH 12 0
BBX 12 20 -1 -7
BITMAP
002567751000
09EBAABDFA10
2D1000003BD1
0405300000C6
0008600004E6
00089248CF90
0006FFEB7200
0004F7000000
0001FE200000
0000D6D20000
0000A45D3000
00006704D600
000016002CB2
00000000018B
000000000000
000000C50000
000000A90000
000000980000
000000F40000
000000300000
ENDCHAR
STARTCHAR rcommaaccent
ENCODING 343
SWIDTH 346 0
DWIDTH 7 0
BBX 7 16 0 -7
BITMAP
239EFC30
AE524770
9A000000
79000000
5C000000
1F200000
0C600000
07A00000
01A00000
00000000
00000000
003D0000
002F2000
001F2000
006D0000
00120000
ENDCHAR
STARTCHAR Rcaron
ENCODING 344
SWIDTH 579 0
DWIDTH 12 0
BBX 12 18 -1 -1
BITMAP
000010001100
00007B47E400
000001DD3000
000000210000
002567751000
09EBAABDFA10
2D1000003BD1
0405300000C6
0008600004E6
00089248CF90
0006FFEB7200
0004F7000000
0001FE200000
0000D6D20000
0000A45D3000
00006704D600
000016002CB2
00000000018B
ENDCHAR
STARTCHAR rcaron
ENCODING 345
SWIDTH 346 0
DWIDTH 7 0
BBX 7 13 0 0
BITMAP
01000100
09B38E10
003FB200
00020000
239EFC30
AE524770
9A000000
79000000
5C000000
1F200000
0C600000
07A00000
01A00000
ENDCHAR
STARTCHAR Sacute
ENCODING 346
SWIDTH 627 0
DWIDTH 13 0
BBX 12 17 0 -1
BITMAP
000000580000
000009D20000
00004C100000
000000000000
0002ADEDB600
002D51005D90
005900000030
002E30000000
0006E7000000
00002AD71000
0000003BE700
350000004CC2
89000000009B
2E300000004F
03C9420003BB
0016BEFFFD81
000000121000
ENDCHAR
STARTCHAR sacute
ENCODING 347
SWIDTH 514 0
DWIDTH 10 0
BBX 10 14 0 0
BITMAP
000002B000
00005E5000
0000D40000
0000100000
0001100000
05CFFD4000
2E5003D000
3D0000C000
0AB5310000
0049BDEB50
00000005E6
44000000AB
2EA42225E7
028CEFFD70
ENDCHAR
STARTCHAR Scircumflex
ENCODING 348
SWIDTH 627 0
DWIDTH 13 0
BBX 12 19 0 -1
BITMAP
000001800000
000005F80000
00002DDF6000
0002D80AE000
000150005000
000000000000
0002ADEDB600
002D51005D90
005900000030
002E30000000
0006E7000000
00002AD71000
0000003BE700
350000004CC2
89000000009B
2E300000004F
03C9420003BB
0016BEFFFD81
000000121000
ENDCHAR
STARTCHAR scircumflex
ENCODING 349
SWIDTH 514 0
DWIDTH 10 0
BBX 10 15 0 0
BITMAP
0000270000
00007F6000
0003EDF400
003E61CC00
0024001500
0001100000
05CFFD4000
2E5003D000
3D0000C000
0AB5310000
0049BDEB50
00000005E6
44000000AB
2EA42225E7
028CEFFD70
ENDCHAR
STARTCHAR Scedilla
ENCODING 350
SWIDTH 627 0
DWIDTH 13 0
BBX 12 19 0 -7
BITMAP
0002ADEDB600
002D51005D90
005900000030
002E30000000
0006E7000000
00002AD71000
0000003BE700
350000004CC2
89000000009B
2E300000004F
03C9420003BB
0006EEFFFD81
0000D0111000
0000C4000000
000029CB2000
00000006B000
0001B303C000
00004ECC4000
000000200000
ENDCHAR
STARTCHAR scedilla
ENCODING 351
SWIDTH 514 0
DWIDTH 10 0
BBX 10 17 0 -7
BITMAP
0001100000
05CFFD4000
2E5003D000
3D0000C000
0AB5310000
0049BDEB50
00000005E6
44000000AB
2EA42225E7
028EEFFD70
002B000000
000D300000
0003ACA100
0000008A00
003B205A00
0006ECC300
0000010000
ENDCHAR
STARTCHAR Scaron
ENCODING 352
SWIDTH 627 0
DWIDTH 13 0
BBX 12 17 0 -1
BITMAP
000000001000
0002A93BC000
000007F91000
000000200000
0002ADEDB600
002D51005D90
005900000030
002E30000000
0006E7000000
00002AD71000
0000003BE700
350000004CC2
89000000009B
2E300000004F
03C9420003BB
0016BEFFFD81
000000121000
ENDCHAR
STARTCHAR scaron
ENCODING 353
SWIDTH 514 0
DWIDTH 10 0
BBX 10 13 0 0
BITMAP
0000000100
003B84BA00
00008F8000
0001120000
05CFFD4000
2E5003D000
3D0000C000
0AB5310000
0049BDEB50
00000005E6
44000000AB
2EA42225E7
028CEFFD70
ENDCHAR
STARTCHAR Tcommaaccent
ENCODING 354
SWIDTH 581 0
DWIDTH 12 0
BBX 14 20 0 -7
BITMAP
44433221000000
6ACEFFFFFDB950
000001C51369C3
000000B4000000
000000A5000000
00000097000000
00000089000000
0000006B000000
0000004D000000
0000002F100000
0000001F400000
0000000D900000
00000008E00000
00000000000000
00000000000000
0000000B500000
0000000A900000
00000009900000
0000000E500000
00000003000000
ENDCHAR
STARTCHAR tcommaaccent
ENCODING 355
SWIDTH 328 0
DWIDTH 7 0
BBX 7 19 0 -7
BITMAP
00790000
007B0000
007C0000
008D0000
9EFFFE40
048E3200
006E0000
006E0000
006E0000
005F0000
002F0000
000A1000
00000000
00000000
006B0000
004F0000
003E0000
009A0000
00210000
ENDCHAR
STARTCHAR Tcaron
ENCODING 356
SWIDTH 581 0
DWIDTH 12 0
BBX 14 16 0 0
BITMAP
00010000100000
0006C56E500000
00001DD4000000
44433431000000
6ACEFFFFFDB950
000001C51369C3
000000B4000000
000000A5000000
00000097000000
00000089000000
0000006B000000
0000004D000000
0000002F100000
0000001F400000
0000000D900000
00000008E00000
ENDCHAR
STARTCHAR tcaron
ENCODING 357
SWIDTH 431 0
DWIDTH 9 0
BBX 9 15 0 0
BITMAP
0000000500
0000000E00
0000000F20
0079000D40
007B000A40
007C000110
008D000000
9EFFFE4000
048E320000
006E000000
006E000000
006E000000
005F000000
002F000000
000A100000
ENDCHAR
STARTCHAR Utilde
ENCODING 360
SWIDTH 571 0
DWIDTH 11 0
BBX 12 14 0 0
BITMAP
001AB4009300
00871ACD7000
006300340000
0A3000006000
4B000000D300
67000000E600
77000000C600
680000009800
4A0000006B00
1D0000003F10
0C4000007F60
07C10006FFB0
00DC66CC35F1
002BFD600050
ENDCHAR
STARTCHAR utilde
ENCODING 361
SWIDTH 501 0
DWIDTH 10 0
BBX 10 13 0 0
BITMAP
005C810390
01D25DBD20
0090015100
4500000000
A700000810
A500000D50
9700000D70
7A00000D80
3E10002F90
0C8000BFC0
03F73AB2E2
004DE910A8
0000000046
ENDCHAR
STARTCHAR Umacron
ENCODING 362
SWIDTH 571 0
DWIDTH 11 0
BBX 12 14 0 0
BITMAP
0004ABCA1000
000896572000
000000000000
0A3000006000
4B000000D300
67000000E600
77000000C600
680000009800
4A0000006B00
1D0000003F10
0C4000007F60
07C10006FFB0
00DC66CC35F1
002BFD600050
ENDCHAR
STARTCHAR umacron
ENCODING 363
SWIDTH 501 0
DWIDTH 10 0
BBX 10 12 0 0
BITMAP
006ABC9000
00A8667100
4500000000
A700000810
A500000D50
9700000D70
7A00000D80
3E10002F90
0C8000BFC0
03F73AB2E2
004DE910A8
0000000046
ENDCHAR
STARTCHAR Ubreve
ENCODING 364
SWIDTH 571 0
DWIDTH 11 0
BBX 12 13 0 0
BITMAP
000170570000
00008DB10000
0A3000006000
4B000000D300
67000000E600
77000000C600
680000009800
4A0000006B00
1D0000003F10
0C4000007F60
07C10006FFB0
00DC66CC35F1
002BFD600050
ENDCHAR
STARTCHAR ubreve
ENCODING 365
SWIDTH 501 0
DWIDTH 10 0
BBX 10 12 0 0
BITMAP
0044093000
001BD80000
4500000000
A700000810
A500000D50
9700000D70
7A00000D80
3E10002F90
0C8000BFC0
03F73AB2E2
004DE910A8
0000000046
ENDCHAR
STARTCHAR Uring
ENCODING 366
SWIDTH 571 0
DWIDTH 11 0
BBX 12 15 0 0
BITMAP
000015200000
0001A5C20000
000450740000
00009A900000
0A3000006000
4B000000D300
67000000E600
77000000C600
680000009800
4A0000006B00
1D0000003F10
0C4000007F60
07C10006FFB0
00DC66CC35F1
002BFD600050
ENDCHAR
STARTCHAR uring
ENCODING 367
SWIDTH 501 0
DWIDTH 10 0
BBX 10 12 0 0
BITMAP
0000440000
0009696000
4509038000
A707AA2810
A500000D50
9700000D70
7A00000D80
3E10002F90
0C8000BFC0
03F73AB2E2
004DE910A8
0000000046
ENDCHAR
STARTCHAR Uhungarumlaut
ENCODING 368
SWIDTH 571 0
DWIDTH 11 0
BBX 12 15 0 0
BITMAP
000011000000
0003D5880000
000C67C10000
000204100000
0A3000006000
4B000000D300
67000000E600
77000000C600
680000009800
4A0000006B00
1D0000003F10
0C4000007F60
07C10006FFB0
00DC66CC35F1
002BFD600050
ENDCHAR
STARTCHAR uhungarumlaut
ENCODING 369
SWIDTH 501 0
DWIDTH 10 0
BBX 10 14 0 0
BITMAP
0000110000
0003D57900
000B67D200
0002041000
4500000000
A700000810
A500000D50
9700000D70
7A00000D80
3E10002F90
0C8000BFC0
03F73AB2E2
004DE910A8
0000000046
ENDCHAR
STARTCHAR Uogonek
ENCODING 370
SWIDTH 571 0
DWIDTH 11 0
BBX 12 14 0 -4
BITMAP
097000006200
1D000000A700
3B000000A900
3B0000009A00
2C0000005B00
0E0000002E00
0C2000000F50
088000005FA0
02E30005EEF1
008E87CC35F4
0007DC607C51
00000000D200
000000009D86
000000000132
ENDCHAR
STARTCHAR uogonek
ENCODING 371
SWIDTH 501 0
DWIDTH 10 0
BBX 11 13 0 -3
BITMAP
230000000000
970000050000
B500000D4000
9600000D7000
8900000D8000
4D00001E9000
0D50008FB000
06E306D6E100
008FED20B700
0002301AD900
0000006A0000
0000007C4100
000000058820
ENDCHAR
STARTCHAR Wcircumflex
ENCODING 372
SWIDTH 703 0
DWIDTH 14 0
BBX 14 18 0 0
BITMAP
00000036000000
0000009F500000
000004EDE30000
00005E51DA0000
00003300140000
00000000000000
00000000000000
00000000000000
82000000000710
C4000000000C70
C60000000009D0
B70001100003F3
A80005900000D7
8A0005D000009A
5D0007F400007A
1E303EDD1000C6
08D8E80AD66CB0
008C50007EE800
ENDCHAR
STARTCHAR wcircumflex
ENCODING 373
SWIDTH 656 0
DWIDTH 13 0
BBX 13 15 0 0
BITMAP
00000072000000
000001FC100000
00000ADFA00000
0000BC16F30000
00005100410000
00000000000000
03000000000000
4A000000001000
A8000030008700
C50000D3001E10
B50000D5000B60
890000E8000A80
2E1006FD000D80
08B5AF7CC8CF30
008ED5018AA400
ENDCHAR
STARTCHAR Ycircumflex
ENCODING 374
SWIDTH 403 0
DWIDTH 8 0
BBX 8 19 0 -1
BITMAP
00036000
0009F500
004EDE30
04E51CA0
03300140
82000001
8900004A
2E400088
07E300E5
006E98F1
0003BFA0
00000E40
00004D00
00009800
0000C400
0000F100
0000F000
0001F100
00003000
ENDCHAR
STARTCHAR ycircumflex
ENCODING 375
SWIDTH 487 0
DWIDTH 10 0
BBX 10 25 0 -10
BITMAP
0000440000
0000BE3000
0006EED100
007E32E800
0042002300
0000000000
4100000240
A300000480
95000004B0
88000003E0
4D000002F1
0D400003F3
05C1002DF4
008D8AE8C5
0004971085
0000000076
0000000086
0000000095
00000000B4
00000000D3
05000001F1
0E500004C0
07F7000B70
006EC8CD10
00017B9200
ENDCHAR
STARTCHAR Ydieresis
ENCODING 376
SWIDTH 403 0
DWIDTH 8 0
BBX 8 17 0 -1
BITMAP
00610620
05F73F90
00510510
82000001
8900004A
2E400088
07E300E5
006E98F1
0003BFA0
00000E40
00004D00
00009800
0000C400
0000F100
0000F000
0001F100
00003000
ENDCHAR
STARTCHAR Zacute
ENCODING 377
SWIDTH 571 0
DWIDTH 11 0
BBX 12 17 0 0
BITMAP
000001940000
00002D800000
0000A7000000
000010000000
025541000000
7FB9AEA10000
310001A90000
0000001E0000
0000000E0000
0000005C0000
000369EEB920
00ADCFF97600
00000D600000
00006A000000
0003E2000000
0009B247BEF1
0004EFFDA620
ENDCHAR
STARTCHAR zacute
ENCODING 378
SWIDTH 459 0
DWIDTH 9 0
BBX 9 14 0 0
BITMAP
0000590000
0008D20000
003C100000
0035510000
4EDCCE3000
570007A000
000006A000
00000B6000
1457AFB600
2BBDF64100
002E500000
00C9000010
03FB569E80
019EFDA500
ENDCHAR
STARTCHAR Zdotaccent
ENCODING 379
SWIDTH 571 0
DWIDTH 11 0
BBX 12 15 0 0
BITMAP
0000D3000000
000093000000
025541000000
7FB9AEA10000
310001A90000
0000001E0000
0000000E0000
0000005C0000
000369EEB920
00ADCFF97600
00000D600000
00006A000000
0003E2000000
0009B247BEF1
0004EFFDA620
ENDCHAR
STARTCHAR zdotaccent
ENCODING 380
SWIDTH 459 0
DWIDTH 9 0
BBX 9 13 0 0
BITMAP
0000C40000
0000830000
0035510000
4EDCCE3000
570007A000
000006A000
00000B6000
1457AFB600
2BBDF64100
002E500000
00C9000010
03FB569E80
019EFDA500
ENDCHAR
STARTCHAR Zcaron
ENCODING 381
SWIDTH 571 0
DWIDTH 11 0
BBX 12 17 0 0
BITMAP
000000010000
004B65D70000
0000BE600000
000011000000
025541000000
7FB9AEA10000
310001A90000
0000001E0000
0000000E0000
0000005C0000
000369EEB920
00ADCFF97600
00000D600000
00006A000000
0003E2000000
0009B247BEF1
0004EFFDA620
ENDCHAR
STARTCHAR zcaron
ENCODING 382
SWIDTH 459 0
DWIDTH 9 0
BBX 9 15 0 0
BITMAP
0100011000
06B56E5000
001DD40000
0002100000
0035510000
4EDCCE3000
570007A000
000006A000
00000B6000
1457AFB600
2BBDF64100
002E500000
00C9000010
03FB569E80
019EFDA500
ENDCHAR
STARTCHAR florin
ENCODING 402
SWIDTH 376 0
DWIDTH 8 0
BBX 12 21 -2 -6
BITMAP
000000010000
000004DFD500
00002F814E60
0000990003D1
0000D4000000
0001F2000000
0002F2000000
0002F3000000
0026F9643000
01DADCABA000
0000A7000000
0000A7000000
0000B7000000
0000B6000000
0000C5000000
0000D4000000
5100E4000000
9A00E3000000
1BA3F2000000
007EF1000000
000120000000
ENDCHAR
STARTCHAR AEacute
ENCODING 508
SWIDTH 960 0
DWIDTH 19 0
BBX 19 17 0 0
BITMAP
00000000002B00000000
0000130005E500000000
001BCCE50D4000000000
00B5004E410000000000
04A00004D05665444300
08400000B6FCCBBBAB40
0B1000005CF000000000
0C0000001FF000000000
0C0000000DF000000000
0D0000000CF4468BDB00
4EBA98876EFB98752000
4F5333577CC000000000
0D10000007B000000000
0E20000007A000000000
0C50000007B000000000
0A8000000AD65679AB70
049000000B9CEEEDB820
ENDCHAR
STARTCHAR aeacute
ENCODING 509
SWIDTH 881 0
DWIDTH 18 0
BBX 18 15 0 -1
BITMAP
0000000004A0000000
000000007D30000000
00000002D200000000
000000001000000000
000BEA20005BD91000
001739E309C32B9000
0000006D5C0001E000
0001210CF50002E000
03CFEECDF3005E7000
3E71004EF9DED60000
87000002E721000000
780000007B00000000
1DC75689BFB3000000
017BEFD9519FECCDA1
000000000002576200
ENDCHAR
STARTCHAR Oslashacute
ENCODING 510
SWIDTH 609 0
DWIDTH 12 0
BBX 12 16 0 -2
BITMAP
000001A20000
00003E600000
0000B5000000
000010021000
0038961A3000
07E88CFF2000
2D10005EE500
870000954F50
950001E106E1
870006A000C6
4D100C400089
0CB13D0001D6
02DEB8148E90
0019FFEC8300
000890000000
000720000000
ENDCHAR
STARTCHAR oslashacute
ENCODING 511
SWIDTH 487 0
DWIDTH 10 0
BBX 10 12 0 0
BITMAP
0000087000
0001C90000
0007800000
0000242230
007DFEFE60
0AB401AF60
4C0002E8D0
86000C90E2
97008D13F2
5C05E31CC0
0BCE76DE30
01DDFE9100
ENDCHAR
STARTCHAR Scommaaccent
ENCODING 536
SWIDTH 627 0
DWIDTH 13 0
BBX 12 19 0 -7
BITMAP
0002ADEDB600
002D51005D90
005900000030
002E30000000
0006E7000000
00002AD71000
0000003BE700
350000004CC2
89000000009B
2E300000004F
03C9420003BB
0016BEFFFD81
000000121000
000000000000
00000C500000
00000A900000
000009800000
00000F400000
000003000000
ENDCHAR
STARTCHAR scommaaccent
ENCODING 537
SWIDTH 514 0
DWIDTH 10 0
BBX 10 17 0 -7
BITMAP
0001100000
05CFFD4000
2E5003D000
3D0000C000
0AB5310000
0049BDEB50
00000005E6
44000000AB
2EA42225E7
028CEFFD70
0000000000
0000000000
0000890000
00006D0000
00005C0000
0000B80000
0000310000
ENDCHAR
STARTCHAR circumflex
ENCODING 710
SWIDTH 375 0
DWIDTH 8 0
BBX 6 5 1 10
BITMAP
006300
00ED10
09DFC0
9D24F5
510042
ENDCHAR
STARTCHAR caron
ENCODING 711
SWIDTH 375 0
DWIDTH 8 0
BBX 6 4 1 9
BITMAP
100011
7B47E4
02ED30
002100
ENDCHAR
STARTCHAR breve
ENCODING 728
SWIDTH 224 0
DWIDTH 5 0
BBX 5 2 0 8
BITMAP
620B10
2CD700
ENDCHAR
STARTCHAR dotaccent
ENCODING 729
SWIDTH 152 0
DWIDTH 3 0
BBX 2 2 1 9
BITMAP
E2
92
ENDCHAR
STARTCHAR ring
ENCODING 730
SWIDTH 333 0
DWIDTH 7 0
BBX 5 4 1 8
BITMAP
005300
0A5B40
280560
08AA10
ENDCHAR
STARTCHAR ogonek
ENCODING 731
SWIDTH 254 0
DWIDTH 5 0
BBX 5 4 0 -3
BITMAP
04B200
3E4000
6B0000
1ACA40
ENDCHAR
STARTCHAR tilde
ENCODING 732
SWIDTH 402 0
DWIDTH 8 0
BBX 8 3 0 8
BITMAP
19B50084
781ACD80
54003400
ENDCHAR
STARTCHAR hungarumlaut
ENCODING 733
SWIDTH 264 0
DWIDTH 5 0
BBX 6 4 0 8
BITMAP
002000
0AA3C1
6B2E50
101400
ENDCHAR
STARTCHAR Wgrave
ENCODING 7808
SWIDTH 703 0
DWIDTH 14 0
BBX 14 14 0 0
BITMAP
000000C7000000
0000002D700000
00000001200000
00000000000000
82000000000710
C4000000000C70
C60000000009D0
B70001100003F3
A80005900000D7
8A0005D000009A
5D0007F400007A
1E303EDD1000C6
08D8E80AD66CB0
008C50007EE800
ENDCHAR
STARTCHAR wgrave
ENCODING 7809
SWIDTH 656 0
DWIDTH 13 0
BBX 13 11 0 0
BITMAP
000005C2000000
0000007E100000
03000003000000
4A000000001000
A8000030008700
C50000D3001E10
B50000D5000B60
890000E8000A80
2E1006FD000D80
08B5AF7CC8CF30
008ED5018AA400
ENDCHAR
STARTCHAR Wacute
ENCODING 7810
SWIDTH 703 0
DWIDTH 14 0
BBX 14 14 0 0
BITMAP
0000002B100000
000003E6000000
00000C50000000
00000100000000
82000000000710
C4000000000C70
C60000000009D0
B70001100003F3
A80005900000D7
8A0005D000009A
5D0007F400007A
1E303EDD1000C6
08D8E80AD66CB0
008C50007EE800
ENDCHAR
STARTCHAR wacute
ENCODING 7811
SWIDTH 656 0
DWIDTH 13 0
BBX 13 13 0 0
BITMAP
0000002B100000
000004E5000000
00000C40000000
00000100000000
03000000000000
4A000000001000
A8000030008700
C50000D3001E10
B50000D5000B60
890000E8000A80
2E1006FD000D80
08B5AF7CC8CF30
008ED5018AA400
ENDCHAR
STARTCHAR Wdieresis
ENCODING 7812
SWIDTH 703 0
DWIDTH 14 0
BBX 14 14 0 0
BITMAP
00001610610000
00007F65F80000
00001500510000
00000000000000
82000000000710
C4000000000C70
C60000000009D0
B70001100003F3
A80005900000D7
8A0005D000009A
5D0007F400007A
1E303EDD1000C6
08D8E80AD66CB0
008C50007EE800
ENDCHAR
STARTCHAR wdieresis
ENCODING 7813
SWIDTH 656 0
DWIDTH 13 0
BBX 13 11 0 0
BITMAP
00004403500000
0000EE0CF10000
03003303400000
4A000000001000
A8000030008700
C50000D3001E10
B50000D5000B60
890000E8000A80
2E1006FD000D80
08B5AF7CC8CF30
008ED5018AA400
ENDCHAR
STARTCHAR Ygrave
ENCODING 7922
SWIDTH 403 0
DWIDTH 8 0
BBX 8 17 0 -1
BITMAP
002D4000
0004E300
00002100
82000001
8900004A
2E400088
07E300E5
006E98F1
0003BFA0
00000E40
00004D00
00009800
0000C400
0000F100
0000F000
0001F100
00003000
ENDCHAR
STARTCHAR ygrave
ENCODING 7923
SWIDTH 487 0
DWIDTH 10 0
BBX 10 21 0 -10
BITMAP
0001D50000
00003E5000
4100021240
A300000480
95000004B0
88000003E0
4D000002F1
0D400003F3
05C1002DF4
008D8AE8C5
0004971085
0000000076
0000000086
0000000095
00000000B4
00000000D3
05000001F1
0E500004C0
07F7000B70
006EC8CD10
00017B9200
ENDCHAR
STARTCHAR endash
ENCODING 8211
SWIDTH 287 0
DWIDTH 6 0
BBX 6 3 0 4
BITMAP
034540
8FDCE6
210000
ENDCHAR
STARTCHAR emdash
ENCODING 8212
SWIDTH 512 0
DWIDTH 10 0
BBX 10 3 0 4
BITMAP
0013444540
5DFFEDCCE7
2210000000
ENDCHAR
STARTCHAR quoteleft
ENCODING 8216
SWIDTH 102 0
DWIDTH 2 0
BBX 2 6 0 9
BITMAP
41
96
99
7A
4B
02
ENDCHAR
STARTCHAR quoteright
ENCODING 8217
SWIDTH 102 0
DWIDTH 2 0
BBX 2 6 0 9
BITMAP
41
96
99
7A
4B
02
ENDCHAR
STARTCHAR quotesinglbase
ENCODING 8218
SWIDTH 102 0
DWIDTH 2 0
BBX 2 6 0 -1
BITMAP
10
85
89
7B
4C
06
ENDCHAR
STARTCHAR quotedblleft
ENCODING 8220
SWIDTH 234 0
DWIDTH 5 0
BBX 5 7 0 9
BITMAP
402800
B32D00
A72F00
7A2F10
4E1F20
0B2D20
000200
ENDCHAR
STARTCHAR quotedblright
ENCODING 8221
SWIDTH 234 0
DWIDTH 5 0
BBX 5 7 0 9
BITMAP
402800
B32D00
A72F00
7A2F10
4E1F20
0B2D20
000200
ENDCHAR
STARTCHAR quotedblbase
ENCODING 8222
SWIDTH 341 0
DWIDTH 7 0
BBX 5 7 1 -3
BITMAP
100600
850E10
6A0D30
4D0D50
1F2C60
0A6B60
011320
ENDCHAR
STARTCHAR dagger
ENCODING 8224
SWIDTH 375 0
DWIDTH 8 0
BBX 7 13 0 0
BITMAP
00540000
00590000
001D0000
000D1000
058DB950
6DBCB890
00078000
00079000
0007A000
0006A000
0006A000
0005B000
0004B000
ENDCHAR
STARTCHAR daggerdbl
ENCODING 8225
SWIDTH 375 0
DWIDTH 8 0
BBX 10 15 -1 0
BITMAP
0006800000
0007C00000
0003E00000
0000E10000
0000C30000
4789DA9971
8AAACB76C4
0000580000
8BCCDEDD90
34447B4430
00004A0000
00004A0000
00004A0000
00004B0000
00004B0000
ENDCHAR
STARTCHAR bullet
ENCODING 8226
SWIDTH 341 0
DWIDTH 7 0
BBX 4 4 2 3
BITMAP
3EB1
CFF7
BFF6
2A60
ENDCHAR
STARTCHAR ellipsis
ENCODING 8230
SWIDTH 612 0
DWIDTH 12 0
BBX 12 4 0 0
BITMAP
0590049103A1
0DF50CF60BF8
1FF70EF80DF9
09C108D207D2
ENDCHAR
STARTCHAR guilsinglleft
ENCODING 8249
SWIDTH 487 0
DWIDTH 10 0
BBX 10 9 0 0
BITMAP
0000000010
0000002AC1
000006E800
0001AC3000
004D700000
08D3000000
8F83000000
6BEFFDA600
0001357D60
ENDCHAR
STARTCHAR guilsinglright
ENCODING 8250
SWIDTH 403 0
DWIDTH 8 0
BBX 8 10 0 0
BITMAP
12000000
4F600000
04DD8300
0005AEFA
000000CC
000008E3
0001BC20
005E9100
09E50000
5B200000
ENDCHAR
STARTCHAR fraction
ENCODING 8260
SWIDTH 309 0
DWIDTH 6 0
BBX 6 15 0 0
BITMAP
00001A
00004B
000078
0000C3
0003E0
000890
000D50
004E00
009A00
00E400
05E000
0B8000
3F2000
9B0000
A30000
ENDCHAR
STARTCHAR Euro
ENCODING 8364
SWIDTH 741 0
DWIDTH 15 0
BBX 15 14 0 0
BITMAP
0000000003BD9000
000000008D728000
0000001A70000000
001225DFC8300000
8EFFFFDABAB00000
54207A0000000000
0000C30000000000
0003F99BDE800000
9DEFD75310000000
2107800000000000
0004900000000000
0001D10000000100
00008B32369CEE20
000008DFEDA84000
ENDCHAR
STARTCHAR trademark
ENCODING 8482
SWIDTH 1116 0
DWIDTH 22 0
BBX 22 13 0 0
BITMAP
3333221000002000000020
7ADEFFFFECB8F8000003F0
000001C6236ADF30000AE0
000000B400001FC0003FD0
000000A500001FCC68EFC0
0000009700002E19DB77D0
0000008900002F000003E0
0000006B00003E000001F1
0000005D00004E000000F3
0000003F10004E000000D6
0000001F30004E000000C9
0000000D90004E000000AA
00000008E000050000008B
ENDCHAR
STARTCHAR minus
ENCODING 8722
SWIDTH 287 0
DWIDTH 6 0
BBX 6 3 0 4
BITMAP
034540
8FDCE6
210000
ENDCHAR
STARTCHAR commaaccent
ENCODING 63171
SWIDTH 375 0
DWIDTH 8 0
BBX 2 5 2 -7
BITMAP
89
6C
5C
B8
30
ENDCHAR
STARTCHAR fi
ENCODING 64257
SWIDTH 551 0
DWIDTH 11 0
BBX 11 16 -1 -1
BITMAP
000000100000
00004DFD5000
0002E614E600
000960263D10
000D00290000
001D00000000
002E00023000
002F1005A000
026F9648A000
1DADFDEDC000
0006E004E000
0000D603F200
00006E11F500
00000DA0E700
000004E0A800
000000002200
ENDCHAR
STARTCHAR fl
ENCODING 64258
SWIDTH 723 0
DWIDTH 14 0
BBX 11 15 -1 0
BITMAP
000000100000
00004DFD5000
0002E614E600
000960024D10
000D00096000
001D000A8000
002E000A8000
002F100A9000
026F964C9000
1DADFDEEA000
0006E00AA000
0000D60AA000
00006E1AA000
00000DA89000
000004E77000
ENDCHAR
STARTCHAR .notdef
ENCODING -1
SWIDTH 375 0
DWIDTH 8 0
BBX 1 1 0 0
BITMAP
00
ENDCHAR
STARTCHAR .null
ENCODING -1
SWIDTH 0 0
DWIDTH 0 0
BBX 1 1 0 0
BITMAP
00
ENDCHAR
STARTCHAR nonmarkingreturn
ENCODING -1
SWIDTH 375 0
DWIDTH 8 0
BBX 1 1 0 0
BITMAP
00
ENDCHAR
ENDFONT
